<?xml version="1.0" encoding="utf-8"?>
<!-- Generator: Adobe Illustrator 19.1.0, SVG Export Plug-In . SVG Version: 6.00 Build 0)  -->
<svg version="1.1" id="Слой_1" xmlns="http://www.w3.org/2000/svg" xmlns:xlink="http://www.w3.org/1999/xlink" x="0px" y="0px"
	 viewBox="0 0 100 56.6" style="enable-background:new 0 0 100 56.6;" xml:space="preserve">
<path style="fill: #ffffff" id="vk" d="M85.4,35.7c3.3,3.2,6.7,6.3,9.6,9.7c1.3,1.6,2.5,3.2,3.5,5c1.3,2.6,0.1,5.4-2.2,5.5H81.9c-3.7,0.3-6.6-1.2-9.1-3.7
	c-2-2-3.8-4.2-5.7-6.3c-0.8-0.9-1.6-1.7-2.6-2.3c-1.9-1.3-3.6-0.9-4.9,1.2c-1.1,2-1.4,4.4-1.5,6.7c-0.2,3.5-1.2,4.2-4.5,4.4
	c-7.2,0.3-14.1-0.8-20.4-4.4c-5.6-3.2-10-7.7-13.7-12.9c-7.4-9.9-13-20.9-18.1-32.1c-1-2.7-0.2-4,2.6-4.1c4.7-0.1,9.3-0.1,14,0
	c1.9,0,3.1,1.1,3.9,2.9c2.5,6.3,5.6,12.1,9.5,17.6c1,1.5,2,2.9,3.6,3.9c1.7,1.1,2.9,0.8,3.7-1.1c0.5-1.2,0.6-2.4,0.8-3.7
	c0.4-4.3,0.4-8.6-0.2-12.9c-0.4-2.7-1.9-4.4-4.6-4.9c-1.4-0.3-1.2-0.8-0.5-1.5c1.1-1.3,2.2-2.2,4.4-2.2h16.1
	c2.5,0.5,3.1,1.6,3.5,4.2v17.9c0,1,0.5,3.9,2.3,4.6c1.4,0.5,2.4-0.6,3.2-1.6c3.9-4.1,6.6-9,9.1-14c1.1-2.2,2-4.5,2.9-6.8
	c0.6-1.7,1.7-2.5,3.6-2.5h15.5c0.5,0,0.9,0,1.4,0.1c2.6,0.4,3.3,1.6,2.5,4.1c-1.3,4-3.8,7.3-6.3,10.7c-2.6,3.6-5.4,7-7.9,10.6
	C82.3,31.2,82.5,32.9,85.4,35.7L85.4,35.7z"/>
</svg>
