<?xml version="1.0" encoding="utf-8"?>
<!-- Generator: Adobe Illustrator 19.1.0, SVG Export Plug-In . SVG Version: 6.00 Build 0)  -->
<svg
	version="1.1"
	id="svg2"
	xmlns:dc="http://purl.org/dc/elements/1.1/"
	xmlns:cc="http://creativecommons.org/ns#"
	xmlns:rdf="http://www.w3.org/1999/02/22-rdf-syntax-ns#"
	xmlns:svg="http://www.w3.org/2000/svg"
	xmlns:inkscape="http://www.inkscape.org/namespaces/inkscape"
	xmlns:sodipodi="http://sodipodi.sourceforge.net/DTD/sodipodi-0.dtd"
	sodipodi:docname="htmlcss.svg"
	inkscape:version="0.48.3.1 r9886"
	xmlns="http://www.w3.org/2000/svg"
	xmlns:xlink="http://www.w3.org/1999/xlink"
	x="0px"
	y="0px"
	viewBox="955.5 -35 70.8 100"
	style="enable-background:new 955.5 -35 70.8 100;"
	xml:space="preserve">
	<style type="text/css">
		.st0 {
			fill: #E44D26;
		}
		.st1 {
			fill: #F16529;
		}
		.st2 {
			fill: #EBEBEB;
		}
		.st3 {
			fill: #FFFFFF;
		}
	</style>
	<g id="g3054" transform="translate(524,270.18109)">
		<polygon id="polygon3028" class="st0" points="501.7,-284.9 495.3,-214.1 466.9,-206.2 438.5,-214.1 432.2,-284.9 	"/>
		<polygon id="polygon3030" class="st1" points="466.9,-212.2 489.9,-218.6 495.3,-279.1 466.9,-279.1 	"/>
		<polygon id="polygon3032" class="st2" points="454.6,-261.7 466.9,-261.7 466.9,-270.4 466.9,-270.4 445.1,-270.4 445.4,-268.1 447.5,-244.2 466.9,-244.2 466.9,-252.8 455.4,-252.8 	"/>
		<polygon id="polygon3034" class="st2" points="456.6,-239.8 451.9,-239.8 447.9,-239.8 449.1,-226.2 466.9,-221.2 466.9,-221.2 466.9,-230.3 466.9,-230.3 457.2,-232.9 	"/>
		<path class="st3" id="path3036" inkscape:connector-curvature="0" d="M438.7-304.2h4.4v4.4h4v-4.4h4.4v13.2h-4.4v-4.4h-4v4.4h-4.4L438.7-304.2 L438.7-304.2z"/>
		<path class="st3" id="path3038" inkscape:connector-curvature="0" d="M457.4-299.8h-3.9v-4.4h12.2v4.4h-3.9v8.8h-4.4L457.4-299.8L457.4-299.8z"/>
		<path class="st3" id="path3040" inkscape:connector-curvature="0" d="M467.6-304.2h4.6l2.8,4.6l2.8-4.6h4.6v13.2h-4.4v-6.6l-3,4.7H475l-3-4.7 v6.6h-4.3V-304.2L467.6-304.2z"/>
		<path class="st3" id="path3042" inkscape:connector-curvature="0" d="M484.7-304.2h4.4v8.8h6.2v4.4h-10.6V-304.2z"/>
		<polygon id="polygon3044" class="st3" points="466.9,-244.2 477.6,-244.2 476.6,-232.9 466.9,-230.3 466.9,-221.2 484.7,-226.2 484.9,-227.6 486.9,-250.5 487.1,-252.8 484.8,-252.8 466.9,-252.8 	"/>
		<polygon id="polygon3046" class="st3" points="466.9,-261.8 466.9,-261.7 487.9,-261.7 487.9,-261.7 487.9,-261.7 488.1,-263.7 488.5,-268.1 488.7,-270.4 466.9,-270.4 466.9,-265 	"/>
	</g>
</svg>
