<?xml version="1.0" encoding="utf-8"?>
<!-- Generator: Adobe Illustrator 19.1.0, SVG Export Plug-In . SVG Version: 6.00 Build 0)  -->
<svg version="1.1" id="Слой_1" xmlns="http://www.w3.org/2000/svg" xmlns:xlink="http://www.w3.org/1999/xlink" x="0px" y="0px"
	 viewBox="2435 -35 100 100" style="enable-background:new 2435 -35 100 100;" xml:space="preserve">
<style type="text/css">
	.st0{fill:#563D7C;}
	.st1{fill:#FFFFFF;}
</style>
<path class="st0" d="M2436,51.4c0,7,5.7,12.6,12.6,12.6h72.7c7,0,12.6-5.7,12.6-12.6v-72.7c0-7-5.7-12.6-12.6-12.6h-72.7
	c-7,0-12.6,5.7-12.6,12.6V51.4L2436,51.4z"/>
<path class="st1" d="M2476.6,9.3V-4.5h12.2c1.2,0,2.3,0.1,3.4,0.3c1.1,0.2,2,0.5,2.9,1c0.8,0.5,1.5,1.2,2,2.1c0.5,0.9,0.7,2,0.7,3.4
	c0,2.5-0.7,4.3-2.2,5.4c-1.5,1.1-3.4,1.7-5.7,1.7L2476.6,9.3L2476.6,9.3z M2463.6-14.7v59.3h28.8c2.7,0,5.2-0.3,7.8-1
	c2.5-0.7,4.8-1.7,6.7-3.1c2-1.4,3.5-3.2,4.7-5.4c1.2-2.2,1.7-4.8,1.7-7.8c0-3.7-0.9-6.9-2.7-9.5c-1.8-2.6-4.5-4.5-8.2-5.5
	c2.7-1.3,4.7-2.9,6-4.9c1.4-2,2-4.5,2-7.5c0-2.8-0.5-5.1-1.4-7c-0.9-1.9-2.2-3.4-3.9-4.5c-1.7-1.1-3.7-2-6-2.5
	c-2.3-0.5-4.9-0.7-7.7-0.7L2463.6-14.7L2463.6-14.7z M2476.6,34.5V18.2h14.2c2.8,0,5.1,0.7,6.8,2c1.7,1.3,2.6,3.5,2.6,6.5
	c0,1.6-0.3,2.8-0.8,3.8s-1.2,1.8-2.1,2.4c-0.9,0.6-1.9,1-3.1,1.2c-1.2,0.2-2.4,0.4-3.7,0.4H2476.6L2476.6,34.5z"/>
</svg>
