<?xml version="1.0" encoding="utf-8"?>
<!-- Generator: Adobe Illustrator 19.1.0, SVG Export Plug-In . SVG Version: 6.00 Build 0)  -->
<svg version="1.1" id="Слой_1" xmlns="http://www.w3.org/2000/svg" xmlns:xlink="http://www.w3.org/1999/xlink" x="0px" y="0px"
	 viewBox="2436.3 -26.3 100 87.9" style="enable-background:new 2436.3 -26.3 100 87.9;" xml:space="preserve">
<style type="text/css">
	.st0{fill:#543729;}
	.st1{fill:#00ACEE;}
	.st2{fill:#2BAF2B;}
	.st3{fill:#FFCC2F;}
	.st4{fill:#CECECE;}
	.st5{fill:#EF5734;}
	.st6{fill:#FFFFFF;}
</style>
<path class="st0" d="M2533.4,16.7c-5-4.8-30.2-7.9-38.2-8.7c0.4-0.9,0.7-1.9,1-2.8c1.1-0.5,2.3-0.9,3.5-1.3c0.1,0.4,0.8,2.1,1.2,2.9
	c16,0.4,16.8-11.9,17.5-15.3c0.6-3.3,0.6-6.5,6.1-12.3c-8.2-2.4-19.9,3.7-23.9,12.7c-1.5-0.6-3-1-4.4-1.2c-1.1-4.2-6.5-16-20.9-16
	c-18.2,0-38,15-38,40.4c0,21.3,14.6,40,22.8,40c3.6,0,6.7-2.7,7.4-5.1c0.6,1.7,2.5,6.8,3.1,8.1c0.9,1.9,5.1,3.6,6.9,1.6
	c2.4,1.3,6.7,2.1,9-1.4c4.5,1,8.6-1.7,8.6-5c2.2-0.1,3.3-3.2,2.8-5.7c-0.4-1.8-4.2-8.4-5.7-10.7c3,2.4,10.5,3.1,11.4,0
	c4.8,3.7,12.2,1.8,12.8-1.3c5.8,1.5,12.5-1.8,11.4-5.8C2537.2,29.1,2536,19.2,2533.4,16.7L2533.4,16.7z"/>
<path class="st1" d="M2507.5-4.5c2-4,4.5-8.3,7.7-11c-3.5,1.4-7,5.6-9,10.1c-1-0.7-2.1-1.2-3.2-1.8c2.9-6.1,9.5-11.2,16.8-11.6
	c-4.9,4.4-3.2,13.7-7.2,18.6C2511.5-1.3,2508.8-3.5,2507.5-4.5L2507.5-4.5z M2504.3,2c0-0.2,0.1-1.3,0.2-1.9c-0.3-0.1-2-0.4-2.9-0.4
	c-0.1,1.1,0.5,3.1,1,4.3c3.7-0.1,6.4-1.2,8-2.2c-1.3-0.6-3.6-1.2-5.4-1.5C2504.9,0.7,2504.5,1.7,2504.3,2L2504.3,2z"/>
<path class="st2" d="M2490.5,33.5L2490.5,33.5c-0.5-1-1-2.2-1.6-3.8c2.3,3.4,9.6,1.6,9.2-1.4c3.6,2.7,10.9-0.4,9.3-4.2
	c3.6,1.7,7.7-1.7,6.7-3.1c6.1,1.2,11.9,2.3,13.8,2.8c-1.2,2-4,3.4-8.2,2.4c2.3,3.1-2.1,6.8-8.2,4.7c1.3,3-4.1,5.7-10.3,2.6
	C2501.3,36.5,2493.5,36.8,2490.5,33.5L2490.5,33.5z M2502.6,18.2c7.1,0.5,18.8,1.6,26,2.6c-0.5-2.4-1.7-3-5.6-4.1
	C2518.7,17.2,2508,18.2,2502.6,18.2z"/>
<path class="st3" d="M2498.2,28.3c3.6,2.7,10.9-0.4,9.3-4.2c3.6,1.7,7.7-1.7,6.7-3.1c-7.2-1.4-14.8-2.8-16.5-3
	c1,0.1,2.8,0.2,4.9,0.3c5.4,0,16.2-1,20.4-1.5c-6.9-1.7-20.8-4.3-30.5-4.9c-0.4,0.7-1.3,1.8-2.7,2.9c-4.2,8.9-11.9,14.9-20.4,14.9
	c-2.5,0-5.2-0.4-8.3-1.4c-1.9,2.1-10.2,3.6-16.8,0.4c5.3,12.4,17.6,20.7,31.2,20.7c11.5,0,16.5-11.7,15.4-14.8
	c-0.3-0.8-1.3-3.2-1.9-4.9C2491.2,33.1,2498.5,31.3,2498.2,28.3L2498.2,28.3z"/>
<path class="st4" d="M2491.2,4.7c1-0.6,4.5-2.7,7.8-3.5c-0.1-0.4-0.1-0.7-0.1-1.1c-2.2,0.5-6.3,2.3-8.7-0.1c5,1.5,7.5-1.3,11.1-1.3
	c2.2,0,5.3,0.6,7.7,1.6c-2-1.8-8.4-7.3-16.5-7.3C2490.9-4.9,2489-0.2,2491.2,4.7L2491.2,4.7z"/>
<path class="st5" d="M2461.1,28.3c3.1,1,5.9,1.4,8.3,1.4c8.5,0,16.1-5.9,20.4-14.9c-3.1,2.6-8.6,4.8-17,4.8
	c7.6-1.7,14.1-5.5,17.4-11c-2.3-3.7-4.9-11.9,1.5-18.4c-1-3.2-5.8-11.5-16.4-11.5c-18.5,0-33.8,15.5-33.8,36.2c0,4.9,1,9.5,2.8,13.7
	C2450.9,31.9,2459.1,30.3,2461.1,28.3L2461.1,28.3z"/>
<path class="st3" d="M2466.6-3.3c0,4.7,3.8,8.5,8.5,8.5c4.7,0,8.5-3.8,8.5-8.5c0-4.7-3.8-8.5-8.5-8.5
	C2470.4-11.8,2466.6-8,2466.6-3.3L2466.6-3.3z"/>
<path class="st0" d="M2470-3.3c0,2.8,2.3,5.1,5.1,5.1c2.8,0,5.1-2.3,5.1-5.1s-2.3-5.1-5.1-5.1C2472.3-8.4,2470-6.1,2470-3.3
	L2470-3.3z"/>
<ellipse class="st6" cx="2475.2" cy="-5.6" rx="3" ry="1.9"/>
</svg>
