<?xml version="1.0" encoding="utf-8"?>
<!-- Generator: Adobe Illustrator 19.1.0, SVG Export Plug-In . SVG Version: 6.00 Build 0)  -->
<svg version="1.1" id="Слой_1" xmlns="http://www.w3.org/2000/svg" xmlns:xlink="http://www.w3.org/1999/xlink" x="0px" y="0px" viewBox="-80.5 -40.2 70.9 100" style="enable-background:new -80.5 -40.2 70.9 100;" xml:space="preserve">
	<style type="text/css">
		.st0 {
			fill: #264DE4;
		}
		.st1 {
			fill: #2965F1;
		}
		.st2 {
			fill: #EBEBEB;
		}
		.st3 {
			fill: #FFFFFF;
		}
	</style>
	<g id="g3013">
		<polygon id="polygon2989" class="st0" points="-45.1,58.8 -73.4,51 -79.8,-19.9 -10.3,-19.9 -16.7,51 	"/>
		<polygon id="polygon2991" class="st1" points="-22.1,46.5 -16.7,-14.1 -45.1,-14.1 -45.1,52.8 	"/>
		<path class="st3" id="path2999" d="M-63.4-39.2h10.5v4.4h-6.2v4.4h6.2v4.4h-10.5V-39.2z"/>
		<path class="st3" id="path3001" d="M-50.8-39.2h10.5v3.8h-6.2v0.8h6.2v8.8h-10.5v-4h6.2v-0.8h-6.2V-39.2z"/>
		<path class="st3" id="path3003" d="M-38.1-39.2h10.5v3.8h-6.1v0.8h6.1v8.8h-10.5v-4h6.1v-0.8h-6.1V-39.2z"/>
		<polygon id="polygon2993" class="st2" points="-65.3,12.2 -64.5,20.9 -45.1,20.9 -45.1,12.2 	"/>
		<polygon id="polygon2995" class="st2" points="-66.9,-5.4 -66.1,3.2 -45.1,3.2 -45.1,-5.4 -45.1,-5.4 	"/>
		<polygon id="polygon2997" class="st2" points="-45.1,34.7 -45.1,34.7 -54.8,32.1 -55.4,25.2 -60.1,25.2 -64.1,25.2 -62.9,38.8 -45.1,43.8 -45.1,43.8 	"/>
		<polygon id="polygon3005" class="st3" points="-24.9,12.2 -23.3,-5.4 -45.1,-5.4 -45.1,3.2 -32.8,3.2 -33.6,12.2 -45.1,12.2 -45.1,20.9 -34.4,20.9 -35.4,32.1 -45.1,34.7 -45.1,43.8 -27.3,38.8 -27.2,37.3 -25.1,14.5 	"/>
	</g>
</svg>
