<?xml version="1.0" encoding="utf-8"?>
<!-- Generator: Adobe Illustrator 19.1.0, SVG Export Plug-In . SVG Version: 6.00 Build 0)  -->
<svg version="1.1" id="Layer_1" xmlns="http://www.w3.org/2000/svg" xmlns:xlink="http://www.w3.org/1999/xlink" x="0px" y="0px"
	 viewBox="734.9 -7.1 100 37.9" style="enable-background:new 734.9 -7.1 100 37.9;" xml:space="preserve">
<style type="text/css">
	.st0{fill:#569A83;}
	.st1{fill:#C1272D;}
	.st2{fill:#e7e7e7;}
</style>
<g>
	<path class="st0" d="M748.9-4.9c0.4,0,0.7,0.2,0.7,0.7v22c0,0.8-0.2,1.6-0.5,2.3c-0.3,0.7-0.7,1.3-1.3,1.9c-0.5,0.5-1.2,1-1.9,1.3
		s-1.5,0.5-2.3,0.5h-1.8c-0.8,0-1.6-0.2-2.3-0.5c-0.7-0.3-1.3-0.7-1.9-1.3s-1-1.2-1.3-1.9c-0.3-0.7-0.5-1.5-0.5-2.3v-5
		c0-0.4,0.2-0.7,0.6-0.8l4.3-1.1c0.4-0.1,0.6,0,0.6,0.5v6.3c0,0.3,0.1,0.6,0.3,0.8c0.2,0.2,0.5,0.3,0.8,0.3h0.4
		c0.3,0,0.6-0.1,0.8-0.3c0.2-0.2,0.3-0.5,0.3-0.8V-4.2c0-0.4,0.2-0.7,0.7-0.7C744.7-4.9,748.9-4.9,748.9-4.9L748.9-4.9z"/>
	<path class="st0" d="M767.2,22.7c0.1,0.4-0.1,0.7-0.6,0.7h-4.3c-0.4,0-0.6-0.2-0.7-0.7l-0.4-4.6h-2.9l-0.4,4.6
		c-0.1,0.4-0.3,0.7-0.7,0.7H753c-0.4,0-0.6-0.2-0.6-0.7L756-4.2c0.1-0.4,0.3-0.7,0.8-0.7h6.2c0.4,0,0.7,0.2,0.8,0.7L767.2,22.7z
		 M760.9,12.8L760,2.4h-0.4l-0.9,10.4H760.9L760.9,12.8z"/>
	<path class="st0" d="M778-4.9c0.8,0,1.6,0.2,2.3,0.5c0.7,0.3,1.3,0.7,1.9,1.3c0.5,0.5,1,1.2,1.3,1.9S784,0.2,784,1v16.4
		c0,0.8-0.2,1.6-0.5,2.3c-0.3,0.7-0.7,1.3-1.3,1.9c-0.5,0.5-1.2,1-1.9,1.3c-0.7,0.3-1.5,0.5-2.3,0.5h-7c-0.4,0-0.7-0.2-0.7-0.7V-4.2
		c0-0.4,0.2-0.7,0.7-0.7L778-4.9L778-4.9z M778.5,1.2c0-0.3-0.1-0.6-0.3-0.8c-0.2-0.2-0.5-0.3-0.8-0.3h-1.5v18.2h1.5
		c0.3,0,0.6-0.1,0.8-0.3c0.2-0.2,0.3-0.5,0.3-0.8V1.2L778.5,1.2z"/>
	<path class="st0" d="M799.3,18.5v4.2c0,0.4-0.2,0.7-0.7,0.7h-10.2c-0.4,0-0.7-0.2-0.7-0.7V-4.2c0-0.4,0.2-0.7,0.7-0.7h10.2
		c0.4,0,0.7,0.2,0.7,0.7v4.2c0,0.4-0.2,0.7-0.7,0.7h-5.4v5.4h4.6c0.4,0,0.7,0.2,0.7,0.7v4.2c0,0.4-0.2,0.7-0.7,0.7h-4.6v6.4h5.4
		C799,17.8,799.3,18,799.3,18.5L799.3,18.5z"/>
</g>
<g>
	<path class="st1" d="M826.4,10.5c0.1,0.1,0.2,0.4,0,0.5c-0.4,0.3-0.9,0.2-1.4,0.2c-0.8-0.1-1.8-0.1-2.2-0.9c0,0,0,0,0,0
		c-0.5-0.3,0.4-0.5,0.6-0.5c0.6-0.1,1.2,0.1,1.8,0.2C825.6,10,826,10.1,826.4,10.5L826.4,10.5z"/>
	<path class="st1" d="M833.9,22.7c-0.4,0.3-0.2,0.7-0.5,1.1c-0.3,0.3-0.9,0.3-1.3,0.3c-1.5,0-2.9-0.1-4.4,0c-0.4,0-0.7,0.1-1.1,0.2
		c-0.1,0-0.3,0.1-0.4,0c-0.3-0.2-0.6-0.6-0.9-0.5c-0.3,0.1-0.6,0.6-0.9,0.3c-0.7-0.5-1.3-0.1-2,0.1c-0.8,0.2-1.5-0.3-2.3-0.1
		c-0.6,0.2-1.1,0.3-1.7,0.1c-0.6-0.2-0.7-0.7-0.2-1.1c0.8-0.7,1.8-0.8,2.8-0.7c1.5,0.1,3,0,4.5-0.1c0.1,0,0.1,0,0.1,0.1
		c0.6,0.3,1.1-0.3,1.4-0.7c0.1-0.1,0.1,0,0.2,0c0.5,0.8,1.2-0.1,1.9,0c0.2,0,0.3,0.1,0.5,0.2c0.1,0.1,0.1,0.2,0.1,0.3
		c0,0.4,0.6,0.3,0.5-0.1c0-0.1,0.1-0.1,0.1-0.1c0.5,0.2,1.2,0.5,1.7-0.1c0.4-0.5,0.4-1.2,0.5-1.7c0.1-1.5,0-3.1-0.1-4.7
		c-0.1-1.5-0.3-3-0.1-4.5c0.2-1.5,0.2-2.9,0.1-4.4c0-0.8-0.1-1.6,0-2.3c0-0.7,0.2-1.5,0.1-2.2c-0.1-0.6-0.5-1.2-0.5-1.8
		c-0.1-0.6,0-1.2,0.1-1.7c0.1-0.3,0.3-0.8,0.2-1.1c0-0.3,0-0.6,0-0.9c0-0.2,0-0.4,0.1-0.5c0.2-0.2,0.3-0.5-0.2-0.6
		c-1-0.1-2-0.8-3-0.1c0,0.2,0,0.5,0,0.7l0.1,0.2c0.2,0.1,0.5,0.1,0.8,0.2c0.3,0,0.6-0.1,0.9-0.1c0.3,0,0.5,0.3,0.4,0.6
		c-0.1,0.2-0.3,0.4-0.4,0.6c-0.2,0.3-0.2,0.8-0.2,1.2c0,0.9,0,1.9,0,2.8c0,0.8,0.1,1.5,0.2,2.3c0,0,0.1,0,0.1,0.1
		c0,0.9,0.3,1.7,0.3,2.6c0,0-0.2,1.1-0.2,1.1c0,1.1-0.1,3.2-0.1,3.2c0,1.9-0.3,3.8,0,5.7c0.1,0.8-0.2,1.5-0.2,2.3
		c0,0.8,0.1,1.7-0.1,2.5c0,0.1,0,0.1-0.1,0.1c-1.8,0.3-3.5,0.4-5.3,0.3c-0.4,0-1-0.1-1.4,0.1c-0.2,0.1-0.4,0.2-0.6,0.2
		c-0.3,0-0.4-0.2-0.6-0.3c-0.3-0.1-0.6-0.1-0.9-0.2c-0.8-0.1-1.5-0.2-2.3,0.2c-0.4,0.2-0.8,0.1-1.3-0.1c-0.5-0.2-0.9-0.4-1.4-0.2
		c-0.2,0.1-0.4,0.2-0.7,0.3c-0.2,0.1-0.4,0-0.6-0.1c-0.4-0.2-0.7-0.2-1.2-0.1c0.1,0.1,0,0.2-0.1,0.2c-2.6-0.1-5.2,0.2-7.8,0.2
		c-0.1,0-0.2,0.2-0.3,0.2h-0.1c-0.1,0-0.1-0.2-0.1-0.3c-0.3-0.4-0.3-1.7-0.2-2c0.1-2.4-0.2-4.9-0.3-7.3c0-1.2,0-2.4,0.2-3.6
		c0.2-1.3,0.2-2.7,0.2-4c-0.1-2.7,0.2-5.3,0.1-8c0-0.1,0.1-0.1,0.1-0.1l0,0c0.7-0.1,1.5-0.3,2.2-0.1c0,0,0,0,0,0l0.1,0h0.8
		c0,0,0.1,0,0.1,0c1.4,0,2.8-0.1,4.2-0.2c0.5,0,1,0,1.5-0.2c0.2-0.1,0.5-0.2,0.8-0.2c0.6,0.1,1.3,0.2,1.9,0.4
		c0.4,0.1,0.8-0.7,1.2-0.4c0.6,0.4,1.3,0.2,2,0.3c0.4,0,0.7-0.1,1.1-0.1c0.2,0,0.4,0.1,0.6,0.1c0.2,0,0.3,0,0.5,0.1l3.3-0.1
		c0.7,0,1.4,0.1,2-0.2c0.2-0.1,0.3-0.2,0.3-0.3c0-0.1-0.1-0.1-0.1-0.2c-0.1-0.1-0.1-0.2-0.2-0.3c-0.7-0.2-1.5-0.2-2.3-0.2
		c-1-0.1-2,0.1-3,0.2c-0.9,0.1-1.9,0.1-2.8,0.1c-0.6-0.1-1.6-0.3-2.1,0.1c-0.1,0-0.1,0-0.1,0c-0.9-0.7-2.1,0.4-3.1,0.1
		c-0.6-0.2-1.2-0.3-1.8-0.2c-0.6,0.1-1.2,0.2-1.9,0.2c-1.4,0-2.8,0.1-4.2,0c-0.3,0-0.6,0-0.9-0.1c-0.2,0-0.6-0.2-0.8-0.1
		c-0.4,0.1-0.5,0.3-0.4,0.4c0.1,0.1-0.3,0.6-0.3,0.8l0,0.6c0,0.9-0.1,1.8-0.3,2.7c-0.1,0.5-0.3,1.2-0.2,1.7c0.1,0.3,0.3,0.5,0.5,0.8
		c0.2,0.5,0.3,1.2,0.2,1.7L805,9.8c-0.1,1.8-0.2,3.7-0.1,5.5c0.1,1.7,0.3,3.4,0.1,5.1c-0.1,0.6-0.8,1.6-0.1,2
		c0.4,0.2,0.8,0.3,1.2,0.3c1,0.1,2.1-0.1,3.1-0.2c0.4-0.1,0.8-0.1,1.2-0.1c0.3,0,0.6,0,0.8,0.1c0.2,0.1,0.6,0.3,0.9,0.3
		c0,0,0.5,0,0.5-0.1c0.4-0.2,0.7-0.3,1.2-0.2c0.5,0.1,0.9,0.2,1.4,0.1c0.3-0.1,0.6-0.1,0.9,0l0.1,0.1c0.1-0.1-0.1,0.1-0.2,0.2
		c-0.6,0.2-0.4,1-0.5,1.5c0,0.1-0.1,0.1-0.1,0.1c-0.2,0-0.6,0-0.7-0.2c-0.3-0.5-0.9-0.8-0.9,0.2c0,0.1-0.1,0.1-0.1,0.1
		c-0.1,0-0.1,0-0.1-0.1s-0.7-0.4-0.8-0.5c-0.3-0.2-0.7-0.4-1.1-0.3c-0.2,0.1-0.4,0.2-0.7,0.3c-0.4,0.5-0.8,1-1.4,0.7
		c-0.1-0.1-0.6-0.5-0.7-0.4c-0.1,0.2-0.3,0.3-0.5,0.4c-0.6,0.2-1.1,0.2-1.7,0.2c0,0-0.1,0-0.1-0.1c0-0.2-0.2-0.7-0.5-0.4
		c-0.1,0.1-0.1,0.1-0.2,0.2c-0.1,0.1-0.2,0.2-0.3,0.2c-0.4,0.2-1.6-0.1-1.7-0.3c-0.1-0.2-0.2-0.4-0.2-0.6c-0.1-0.6,0-1.2-0.1-1.8
		c-0.1-1.4-0.2-2.9-0.3-4.3c-0.1-0.7-0.1-1.5-0.1-2.2c0-0.5,0.1-1.1,0.3-1.6c0.2-0.3,0.1-0.6-0.2-0.9c-0.1-0.1-0.1-0.2-0.1-0.3
		c-0.1-0.5,0.1-1.1,0.1-1.6c0-0.4,0.1-0.8,0.1-1.2c0-0.3-0.1-0.6-0.1-0.9c0-0.2,0-0.3,0.1-0.4c0.2-0.3,0.2-0.4,0.1-0.7
		c-0.2-0.6,0-1.2,0-1.8c0.1-0.7,0.1-1.4,0-2.1c-0.1-0.8-0.2-1.5-0.2-2.3c0.1-0.7,0.1-1.3,0.1-2c0.1-1.3,0.1-2.5,0-3.8v0.3
		c0,0-0.1-1.6,0.6-2c1-0.6,2.3-0.5,3.4-0.5c1.4-0.1,2.9,0.1,4.4,0.1c0.8,0,1.7,0,2.5-0.2c0.6-0.1,1.2-0.2,1.7-0.2
		c0.7,0.1,1.4,0.2,2.1,0.3s1.4,0,2.1,0c1.5-0.1,3.1-0.1,4.6,0l2.4,0.1c0.4,0,0.8,0.1,1.2,0l0.7-0.2c0.5-0.1,0.8,0,1.3,0.1l1.8,0.4
		c0.2-0.1,0.4-0.1,0.6,0.1c0.3,0.3,0,0.7,0.3,1c0.3,0.4,0.6,0.7,0.6,1.2c0.1,0.6,0.1,1.2-0.1,1.7c-0.1,0.4-0.3,0.8-0.1,1.2
		c0.1,0.2,0.3,0.5,0.3,0.7c0.1,0.6,0.1,1.1,0.1,1.7c0,0.6-0.1,1.3-0.1,1.9c-0.1,0.4-0.2,0.8-0.2,1.2c0,0.3,0.1,0.6,0.2,0.9
		c0.2,1.1-0.7,1.7-0.9,2.7c-0.1,0.5,0.5,0.3,0.8,0.6c0.2,0.2,0.1,0.5,0.1,0.8c-0.1,0.6,0.1,1.1,0.1,1.7c0,0.7-0.2,1.3-0.1,2
		c0.1,0.4,0.2,0.8,0.1,1.2s-0.6,1.4,0.1,1.6c0,0,0.1,0,0.1,0.1c0,0.2,0,0.3-0.1,0.5c-0.3,0.6,0.2,0.5,0.2,0.9
		c0.1,0.4-0.1,0.5-0.2,0.8c-0.1,0.6,0.2,1,0.2,1.5c0,0.5-0.3,0.8-0.2,1.2c0,0,0.1,0,0.1,0.1c0.1,0.2,0.1,0.5,0,0.8
		C833.6,22.4,833.4,22.5,833.9,22.7C833.9,22.6,833.9,22.7,833.9,22.7L833.9,22.7z M827.2,5.7c-0.2-1.5-0.4-3.1-0.9-4.5
		c-0.2-0.6-0.3-1.3-1-1.4c-0.9-0.2-0.6,0.6-0.5,1.3c0.2,1.1,0.3,2.3,0.6,3.4c0.2,0.8,0.6,1.7-0.4,1.1c-1.7-1-2.3-3.3-3-5
		c-0.3-0.8-1.2-2.6-1.8-3.1c-0.3-0.2-1.7-0.5-2-0.3c-0.6,0.4,1.3,3.3,1.5,3.8c0.6,1.2,1.2,2.3,1.9,3.3c0.5,0.7,1.3,1.4,0.2,1.8
		c-1.2,0.5-1.8-0.2-2.6-0.8c-0.7-0.5-1.5-0.6-2.3-0.7c-2.3-0.3-4.4,0-6.2,1.5C809.6,7,809.1,8,808.6,9c-0.1,0.3-0.9,2.5-0.8,2.5
		c-0.5-0.1-0.2-1.2-0.8-0.5c-0.5,0.6,0.2,2.1,0.4,2.7c0.5,1.2,1.1,2.4,1.5,3.7s0.5,1.3,1.7,1.4c1.5,0.1,3-0.3,4.4-0.5
		c0,0-2.6-1.6,2.5,0.2c1.2,0.4,2.4,0.3,3.6,0.3c0.9-0.2,0.9-1.7,1.3-2.4c0.2-0.3,1-1.6,1.3-1.7c0.4-0.1,0.9,0.2,1.3,0.3
		c2.2,0.3,2.8-1.4,2.5-3.2c-0.3-1.5-0.1-3.2,0.1-4.4C827.7,7,827.3,6.1,827.2,5.7L827.2,5.7z"/>
	<path class="st1" d="M817.6,24.1c-0.2-0.2-0.6-0.3-0.8-0.5c-0.1-0.1-0.2-0.3-0.1-0.4c0,0,0,0,0,0c-0.2-0.3,0.2-0.6,0.5-0.5
		c0.1,0.1,0.3,0.2,0.4,0.3c0,0.2-0.1,0.4-0.2,0.6c0.2,0.1,0.3,0.3,0.4,0.4C817.7,24.1,817.6,24.2,817.6,24.1L817.6,24.1z"/>
</g>
<g>
	<path class="st2" d="M748.2,27.1l1.4,2.2h0v-2.2h0.7v3.3h-0.7l-1.4-2.2h0v2.2h-0.7v-3.3H748.2z"/>
	<path class="st2" d="M751.8,28c0.1-0.2,0.2-0.4,0.3-0.6c0.1-0.2,0.3-0.3,0.5-0.4s0.4-0.1,0.7-0.1c0.3,0,0.5,0,0.7,0.1
		c0.2,0.1,0.4,0.2,0.5,0.4c0.1,0.2,0.2,0.3,0.3,0.6c0.1,0.2,0.1,0.4,0.1,0.7s0,0.5-0.1,0.7c-0.1,0.2-0.2,0.4-0.3,0.5
		c-0.1,0.2-0.3,0.3-0.5,0.4c-0.2,0.1-0.4,0.1-0.7,0.1c-0.3,0-0.5,0-0.7-0.1c-0.2-0.1-0.4-0.2-0.5-0.4c-0.1-0.2-0.2-0.3-0.3-0.5
		c-0.1-0.2-0.1-0.4-0.1-0.7C751.7,28.5,751.7,28.2,751.8,28z M752.5,29.1c0,0.1,0.1,0.2,0.2,0.4c0.1,0.1,0.2,0.2,0.3,0.3
		c0.1,0.1,0.3,0.1,0.4,0.1c0.2,0,0.3,0,0.4-0.1c0.1-0.1,0.2-0.1,0.3-0.3c0.1-0.1,0.1-0.2,0.2-0.4c0-0.1,0.1-0.3,0.1-0.4
		s0-0.3-0.1-0.4c0-0.1-0.1-0.3-0.2-0.4c-0.1-0.1-0.2-0.2-0.3-0.3c-0.1-0.1-0.3-0.1-0.4-0.1c-0.2,0-0.3,0-0.4,0.1
		c-0.1,0.1-0.2,0.2-0.3,0.3c-0.1,0.1-0.1,0.2-0.2,0.4s-0.1,0.3-0.1,0.4C752.4,28.9,752.4,29,752.5,29.1z"/>
	<path class="st2" d="M757.8,27.1c0.2,0,0.4,0,0.6,0.1c0.2,0.1,0.3,0.2,0.5,0.3c0.1,0.1,0.2,0.3,0.3,0.5c0.1,0.2,0.1,0.4,0.1,0.7
		c0,0.2,0,0.5-0.1,0.7c-0.1,0.2-0.2,0.4-0.3,0.5c-0.1,0.2-0.3,0.3-0.5,0.3c-0.2,0.1-0.4,0.1-0.7,0.1h-1.4v-3.3L757.8,27.1
		L757.8,27.1z M757.7,29.7c0.1,0,0.2,0,0.3-0.1s0.2-0.1,0.3-0.2s0.1-0.2,0.2-0.3c0.1-0.1,0.1-0.3,0.1-0.5c0-0.2,0-0.3-0.1-0.4
		c0-0.1-0.1-0.2-0.2-0.3c-0.1-0.1-0.2-0.2-0.3-0.2c-0.1-0.1-0.3-0.1-0.4-0.1h-0.5v2.1H757.7z"/>
	<path class="st2" d="M763.1,27.1v0.6h-1.7v0.7h1.6V29h-1.6v0.8h1.8v0.6h-2.5v-3.3L763.1,27.1L763.1,27.1z"/>
	<path class="st2" d="M766.5,27.7v-0.6h2.7v0.6h-1v2.7h-0.7v-2.7H766.5z"/>
	<path class="st2" d="M773,27.1v0.6h-1.7v0.7h1.6V29h-1.6v0.8h1.8v0.6h-2.5v-3.3L773,27.1L773,27.1z"/>
	<path class="st2" d="M775.5,27.1l0.8,2.3h0l0.7-2.3h1v3.3h-0.7V28h0l-0.8,2.3h-0.6l-0.8-2.3h0v2.3h-0.7v-3.3H775.5z"/>
	<path class="st2" d="M781,27.1c0.2,0,0.4,0,0.5,0.1c0.1,0.1,0.3,0.1,0.4,0.2c0.1,0.1,0.2,0.2,0.2,0.3c0,0.1,0.1,0.3,0.1,0.4
		c0,0.1,0,0.3-0.1,0.4c0,0.1-0.1,0.2-0.2,0.3c-0.1,0.1-0.2,0.2-0.4,0.2c-0.1,0.1-0.3,0.1-0.5,0.1h-0.8v1.2h-0.7v-3.3L781,27.1
		L781,27.1z M780.8,28.6c0.1,0,0.2,0,0.2,0c0.1,0,0.1,0,0.2-0.1c0.1,0,0.1-0.1,0.1-0.2c0-0.1,0.1-0.2,0.1-0.3s0-0.2-0.1-0.3
		s-0.1-0.1-0.1-0.2c-0.1,0-0.1-0.1-0.2-0.1c-0.1,0-0.2,0-0.2,0h-0.6v1L780.8,28.6L780.8,28.6z"/>
	<path class="st2" d="M784.3,27.1v2.7h1.6v0.6h-2.3v-3.3L784.3,27.1L784.3,27.1z"/>
	<path class="st2" d="M788.9,27.1l1.2,3.3h-0.8l-0.2-0.7h-1.2l-0.3,0.7h-0.7l1.2-3.3H788.9z M788.9,29.1l-0.4-1.2h0l-0.4,1.2H788.9z
		"/>
	<path class="st2" d="M790.6,27.7v-0.6h2.7v0.6h-1v2.7h-0.7v-2.7H790.6z"/>
	<path class="st2" d="M797.1,27.1v0.6h-1.7v0.7h1.6V29h-1.6v0.8h1.8v0.6h-2.5v-3.3L797.1,27.1L797.1,27.1z"/>
	<path class="st2" d="M803.2,27.1v0.6h-1.7v0.7h1.6V29h-1.6v0.8h1.8v0.6h-2.5v-3.3L803.2,27.1L803.2,27.1z"/>
	<path class="st2" d="M805.4,27.1l1.4,2.2h0v-2.2h0.7v3.3h-0.7l-1.4-2.2h0v2.2h-0.7v-3.3H805.4z"/>
	<path class="st2" d="M810.9,30.3c-0.2,0.1-0.3,0.1-0.5,0.1c-0.3,0-0.5,0-0.7-0.1c-0.2-0.1-0.4-0.2-0.5-0.4
		c-0.1-0.2-0.2-0.3-0.3-0.5c-0.1-0.2-0.1-0.4-0.1-0.7c0-0.2,0-0.5,0.1-0.7c0.1-0.2,0.2-0.4,0.3-0.6c0.1-0.2,0.3-0.3,0.5-0.4
		c0.2-0.1,0.4-0.1,0.7-0.1c0.2,0,0.3,0,0.5,0.1c0.2,0.1,0.3,0.1,0.4,0.2c0.1,0.1,0.2,0.2,0.3,0.4c0.1,0.1,0.1,0.3,0.2,0.5h-0.7
		c0-0.2-0.1-0.3-0.2-0.4c-0.1-0.1-0.3-0.1-0.4-0.1c-0.2,0-0.3,0-0.4,0.1c-0.1,0.1-0.2,0.2-0.3,0.3c-0.1,0.1-0.1,0.2-0.2,0.4
		c0,0.1-0.1,0.3-0.1,0.4c0,0.1,0,0.3,0.1,0.4c0,0.1,0.1,0.2,0.2,0.4c0.1,0.1,0.2,0.2,0.3,0.3c0.1,0.1,0.3,0.1,0.4,0.1
		c0.2,0,0.4-0.1,0.6-0.2c0.1-0.1,0.2-0.3,0.2-0.5h-0.7v-0.5h1.4v1.8h-0.5l-0.1-0.4C811.2,30.1,811.1,30.3,810.9,30.3z"/>
	<path class="st2" d="M814.1,27.1v3.3h-0.7v-3.3H814.1z"/>
	<path class="st2" d="M816.4,27.1l1.4,2.2h0v-2.2h0.7v3.3h-0.7l-1.4-2.2h0v2.2h-0.7v-3.3H816.4z"/>
	<path class="st2" d="M822.5,27.1v0.6h-1.7v0.7h1.6V29h-1.6v0.8h1.8v0.6H820v-3.3L822.5,27.1L822.5,27.1z"/>
</g>
</svg>
