<?xml version="1.0" encoding="utf-8"?>
<!-- Generator: Adobe Illustrator 19.1.0, SVG Export Plug-In . SVG Version: 6.00 Build 0)  -->
<svg version="1.1"
	 id="svg2" xmlns:dc="http://purl.org/dc/elements/1.1/" xmlns:cc="http://creativecommons.org/ns#" xmlns:rdf="http://www.w3.org/1999/02/22-rdf-syntax-ns#" xmlns:svg="http://www.w3.org/2000/svg"
	 xmlns="http://www.w3.org/2000/svg" xmlns:xlink="http://www.w3.org/1999/xlink" x="0px" y="0px" viewBox="494.7 2.8 100 23.7"
	 style="enable-background:new 494.7 2.8 100 23.7;" xml:space="preserve">
<style type="text/css">
	.st0{fill:#ffffff;}
	.st1{fill:#FEA620;}
</style>
<g>
	<path id="path300" class="st0" d="M558.5,6.3h-2.7c-0.1,0-0.3,0.1-0.3,0.3l-1,4.4l-1,4.4c0,0.1-0.2,0.3-0.3,0.3h-1.6h-0.3
		c-1.9,0-1.7-1.3-1.3-3.1c0,0,0,0,0-0.1l0-0.2c0,0,0,0,0,0l0.1-0.5l0.1-0.5c0-0.1,0.1-0.4,0.1-0.5l0.4-2.1l0.4-2.1
		c0-0.1-0.1-0.3-0.2-0.3h-2.8c-0.1,0-0.3,0.1-0.3,0.3l-0.6,2.8l-0.6,2.8c0,0,0,0,0,0l-0.1,0.3c-0.7,3.1-0.5,6.1,3.2,6.2
		c0.1,0,0.1,0,0.1,0h5.8c0.1,0,0.3-0.1,0.3-0.3l1.3-5.9l1.3-5.9C558.7,6.4,558.6,6.3,558.5,6.3"/>
	<path id="path338" class="st0" d="M529.7,6.3h-3c-0.1,0-0.3,0.1-0.3,0.3l-0.3,1.2L525.8,9c0,0.1,0.1,0.3,0.2,0.3h3
		c0.1,0,0.3-0.1,0.3-0.3l0.3-1.2l0.3-1.2v0C529.9,6.4,529.8,6.3,529.7,6.3"/>
	<path id="path346" class="st0" d="M528.8,10.1h-3c-0.1,0-0.3,0.1-0.3,0.3l-0.4,1.9l-0.4,1.9c0,0.1-0.1,0.4-0.1,0.5l-0.4,1.9
		l-0.4,1.9c0,0.1-0.1,0.4-0.1,0.5c0,0-0.6,1.7-1.5,1.6c0,0-0.1,0-0.1,0c-0.5,0-0.8,0-0.8,0l0,0c-0.1,0-0.3,0.1-0.3,0.3l0,0l-0.3,1.3
		l-0.3,1.3c0,0.1,0.1,0.3,0.2,0.3c0.5,0,1.7,0,2.4,0c2.3,0,3.6-1.3,4.4-5l0.9-4.3l0.9-4C529.1,10.3,529,10.1,528.8,10.1"/>
	<path id="path368" class="st0" d="M583.6,9.1l-0.1-0.5l-0.1-0.5l-0.1-0.3c-0.2-0.9-1-1.5-2.5-1.5l-2.4,0l-2.2,0H576h-2.3
		c-0.1,0-0.3,0.1-0.3,0.3l0,0l-0.1,0.5l-0.1,0.6l0,0.2l-1.1,5.2l-1.1,5c0,0.1,0,0.3,0,0.4c0,0.1,0.3,0.1,0.5,0.1h2.2
		c0.1,0,0.3,0,0.4-0.1c0.1,0,0.2-0.3,0.2-0.5l0.4-2l0.4-2c0,0,0,0,0,0l0.1-0.3l0.5-2.3l0.4-2c0-0.1,0.2-0.3,0.3-0.3l7.1,0
		C583.6,9.4,583.7,9.3,583.6,9.1"/>
	<path id="path370" class="st0" d="M592.7,4.5c-0.1,0-0.4,0-0.5,0h-2.3c-0.1,0-0.3,0.1-0.4,0.2l-5,7.3c-0.1,0.1-0.2,0.1-0.2,0
		l-0.4-1.6c0-0.1-0.2-0.3-0.3-0.3h-3.2c-0.1,0-0.2,0.1-0.2,0.3l1.4,5c0,0.1,0,0.4,0,0.5l-0.6,2.4c0,0.1,0.1,0.3,0.2,0.3h3.2
		c0.1,0,0.3-0.1,0.3-0.3l0.6-2.4c0-0.1,0.1-0.4,0.2-0.5l8.1-10.8c0.1-0.1,0-0.2-0.1-0.2L592.7,4.5L592.7,4.5z"/>
	<path id="path372" class="st0" d="M567.2,10.8L567.2,10.8c0,0.2-0.2,0.3-0.3,0.3h-4.1c-0.1,0-0.2-0.1-0.2-0.2c0,0,0,0,0,0
		c0,0,0,0,0,0c0,0,0,0,0,0c0,0,0,0,0-0.1c0.4-1,1.2-1.7,2.7-1.7C567,9.1,567.3,9.9,567.2,10.8 M566,6.1c-5.2,0-6.5,3.2-7.2,6.4
		c-0.7,3.3-0.6,6.3,4.8,6.3h0.2c0,0,0,0,0.1,0h0.2h0.1h0.1c0,0,0,0,0.1,0c0.1,0,0.1,0,0.2,0h0c0.2,0,0.4,0,0.6,0h0
		c1.4,0,2.9,0,3.4,0c0.1,0,0.3-0.1,0.3-0.3l0.2-1.1l0-0.2l0.3-1.3c0-0.1-0.1-0.3-0.2-0.3h-4.9c-1.9,0-2.5-0.5-2.3-2h7.8v0
		c0,0,0,0,0,0c0.1,0,0.2-0.1,0.3-0.2c0,0,0,0,0-0.1v0C571.3,9.1,571,6.1,566,6.1"/>
	<path id="path374" class="st0" d="M541.3,10.8l-0.1,0.3c0,0,0,0,0,0l-0.6,2.1l-0.6,2.1c0,0.1-0.2,0.3-0.3,0.3h-3.1
		c-2.4,0-2.9-1.8-2.4-4.6c0.6-2.8,1.7-4.5,4-4.7C541.4,6,542.1,8.3,541.3,10.8 M543.4,15.4c0,0,1.5-3.6,1.8-5.6
		C545.7,7,544.3,3,539,3c-5.3,0-7.6,3.8-8.5,7.9c-0.9,4.2,0.3,7.8,5.5,7.8l4.1,0l3.9,0c0.1,0,0.3-0.1,0.3-0.3l0.7-2.6
		c0-0.1-0.1-0.3-0.2-0.3l-0.6,0l-0.6,0C543.5,15.6,543.4,15.5,543.4,15.4C543.4,15.4,543.4,15.4,543.4,15.4"/>
</g>
<path class="st1" d="M513.1,5.5h-15.2c-1.2,0-2.2,1-2.2,2.1h0v6.4c0,4.7,3.9,8.6,8.7,8.6h2.2c4.8,0,8.7-3.8,8.7-8.6V7.7
	C515.3,6.5,514.3,5.5,513.1,5.5z M505.5,19.5c-3.6,0-6.5-2.9-6.5-6.4h0V9.8h3.3v3.2c0,1.8,1.5,3.2,3.3,3.2c1.8,0,3.3-1.4,3.3-3.2
	h3.3C512,16.6,509.1,19.5,505.5,19.5z M512,12l-3.2-0.8l0.8-3.1l3.2,0.8L512,12z"/>
<g>
	<path id="path384" class="st1" d="M555.1,25.3h-0.5l-0.1-0.1c0,0-0.4,0.2-0.7,0.2c-0.8,0-0.8-0.6-0.6-1.3l0.3-1.3h0.6l-0.1,1
		l-0.1,0.3c-0.1,0.4-0.1,0.6,0.3,0.6h0.4l0.4-1.9h0.7L555.1,25.3z"/>
	<path id="path386" class="st1" d="M558,23.4c0,0-0.7,0-0.9,0c-0.4,0-0.5,0.1-0.5,0.3l0,0.1l1.3,0.1c0,0,0,0.4,0,0.7
		c-0.1,0.4-0.5,0.8-1.2,0.8c-0.4,0-1-0.1-1-0.1l0.1-0.5c0,0,0.7,0,0.9,0c0.4,0,0.5-0.1,0.5-0.2l0-0.2l-1.3-0.1c0,0,0-0.3,0-0.6
		c0.1-0.4,0.5-0.8,1.2-0.8c0.4,0,1,0.1,1,0.1L558,23.4L558,23.4z"/>
	<path id="path388" class="st1" d="M559.6,23.3c-0.3,0-0.5,0.2-0.6,0.5l0.9-0.1C560,23.5,559.9,23.3,559.6,23.3z M558.9,24.3
		c0,0.3,0.1,0.4,0.5,0.4h1l-0.1,0.5c0,0-0.6,0.2-1,0.2c-1.1,0-1.1-0.6-1-1.3c0.1-0.6,0.4-1.3,1.5-1.3c1,0,1.1,0.6,0.8,1.5H558.9z"/>
	<path id="path390" class="st1" d="M562.3,23.9c0.1-0.4,0.1-0.5-0.1-0.5h-0.3l-0.2,0.9l-0.3,1h-0.6l0.5-2.2l0.1-0.3h0.5l0.1,0.1
		c0,0,0.3-0.2,0.6-0.2c0.6,0,0.6,0.5,0.4,1.1H562.3z"/>
	<path id="path392" class="st1" d="M565.5,22.5c-0.3,0-0.4-0.1-0.3-0.4c0.1-0.3,0.3-0.4,0.5-0.4c0.2,0,0.4,0.1,0.3,0.4
		C565.9,22.4,565.7,22.5,565.5,22.5z M565.2,25.3h-0.6l0.1-1l0.2-0.9l-0.4-0.1l0.1-0.5h1.1L565.2,25.3z"/>
	<path id="path394" class="st1" d="M567.9,25.3h-0.6l0.1-1l0.1-0.3c0.1-0.4,0.1-0.6-0.3-0.6h-0.4l-0.4,1.9h-0.7l0.5-2.5h0.5l0.1,0.1
		c0,0,0.4-0.2,0.7-0.2c0.8,0,0.8,0.6,0.6,1.3L567.9,25.3z"/>
	<path id="path396" class="st1" d="M570.3,23.3l-0.7,0.1l-0.2,1c-0.1,0.3-0.1,0.3,0.2,0.3c0.1,0,0.5,0,0.5,0l-0.1,0.5
		c0,0-0.4,0.1-0.6,0.1c-0.7,0-0.7-0.4-0.6-1l0.2-0.9l-0.4-0.1l0.1-0.5h0.4l0.2-0.6h0.6l-0.1,0.6h0.7L570.3,23.3z"/>
	<path id="path398" class="st1" d="M571.8,23.3c-0.3,0-0.5,0.2-0.6,0.5l0.9-0.1C572.2,23.5,572.1,23.3,571.8,23.3z M571.1,24.3
		c0,0.3,0.1,0.4,0.5,0.4h1l-0.1,0.5c0,0-0.6,0.2-1,0.2c-1.1,0-1.1-0.6-1-1.3c0.1-0.6,0.4-1.3,1.5-1.3c1,0,1.1,0.6,0.8,1.5H571.1z"/>
	<path id="path400" class="st1" d="M574.5,23.9c0.1-0.4,0.1-0.5-0.1-0.5H574l-0.2,0.9l-0.3,1H573l0.5-2.2l0.1-0.3h0.5l0.1,0.1
		c0,0,0.3-0.2,0.6-0.2c0.6,0,0.6,0.5,0.4,1.1H574.5z"/>
	<path id="path402" class="st1" d="M577.4,22.4c0,0-0.3,0-0.5,0c-0.3,0-0.3,0.2-0.3,0.4h0.6l-0.1,0.5l-0.7,0.1l-0.4,1.9l-0.3,1h-0.6
		l0.2-1l0.4-1.9l-0.4-0.1l0.1-0.5h0.4c0.1-0.6,0.3-1,1-1c0.2,0,0.5,0.2,0.5,0.2L577.4,22.4z"/>
	<path id="path404" class="st1" d="M578.5,23.4c-0.4,0-0.5,0.2-0.6,0.6c-0.1,0.4-0.1,0.6,0.3,0.6h0.5l0.3-1.3H578.5z M579.6,23.7
		l-0.3,1.5h-0.5l-0.1-0.2c0,0-0.4,0.2-0.8,0.2c-0.8,0-0.8-0.6-0.7-1.3c0.1-0.6,0.4-1.3,1.2-1.3c0.5,0,1.3,0.1,1.3,0.1L579.6,23.7z"
		/>
	<path id="path406" class="st1" d="M582.1,23.4h-0.8c-0.4,0-0.6,0.3-0.7,0.7c-0.1,0.4,0,0.6,0.4,0.6h0.8l-0.1,0.5c0,0-0.6,0.1-1,0.1
		c-0.8,0-1-0.6-0.8-1.3c0.1-0.7,0.6-1.3,1.3-1.3c0.4,0,0.9,0.1,0.9,0.1L582.1,23.4z"/>
	<path id="path408" class="st1" d="M583.6,23.3c-0.3,0-0.5,0.2-0.6,0.5l0.9-0.1C584,23.5,584,23.3,583.6,23.3z M583,24.3
		c0,0.3,0.1,0.4,0.5,0.4h1l-0.1,0.5c0,0-0.6,0.2-1,0.2c-1.1,0-1.1-0.6-1-1.3c0.1-0.6,0.4-1.3,1.5-1.3c1,0,1.1,0.6,0.8,1.5H583z"/>
</g>
</svg>
