<?xml version="1.0" encoding="utf-8"?>
<!-- Generator: Adobe Illustrator 19.1.0, SVG Export Plug-In . SVG Version: 6.00 Build 0)  -->
<svg version="1.1" id="Слой_1" xmlns="http://www.w3.org/2000/svg" xmlns:xlink="http://www.w3.org/1999/xlink" x="0px" y="0px"
	 viewBox="2125.3 -36.8 87.5 100" style="enable-background:new 2125.3 -36.8 87.5 100;" xml:space="preserve">
<style type="text/css">
	.st0{fill:#8CC84B;}
</style>
<path class="st0" d="M2152.5,24.1c-1.6,1-3.9,2.6-5.7,4.3c-3,2.8-3.6,6.7-2,7.6c1.5,0.8,4.8-0.2,7.3-2.8c2.6-2.8,3.6-6.3,2.5-10.3
	c-0.1,0.1-0.3,0.2-0.4,0.2l0,0l-0.2,0.1C2153.3,23.6,2152.8,23.9,2152.5,24.1L2152.5,24.1z M2196.2,22.9c-0.9,1.9-0.9,2.5-0.7,2.7
	c1.3-0.5,3.4-1.6,3.4-4.5c0-0.4-0.1-0.9-0.3-1.4C2197.4,20.8,2196.6,22.1,2196.2,22.9z M2210,17.1c-3.4-0.4-6.1,0.1-8.2,0.9
	c0.4,1,0.7,2,0.7,3.1c0.1,2.3-1.5,4-3.1,5.2c-1,0.7-2,1.2-2.8,1.5c-0.7,0.3-1.6,0.6-2.3,0.5c-1.4-0.3-2.2-1.6-1.2-4.4
	c0.5-1.5,2-3.8,4.5-5.8c-0.6-1.1-1.2-2.3-1.5-3.4c-0.6-2.1-0.8-3.4-0.8-3.4s-2,4.2-4.6,8c-0.1,0.2-0.3,0.4-0.4,0.7
	c0.5,1.2,0.9,2.4,1,3.7c0.1,2.3-0.9,4-2.6,5.2c-0.9,0.7-1.8,1.1-2.7,1.4c-0.5,0.2-1.6,0.6-3.1,0.7c-0.8,0.1-1.6,0-2.1-0.3
	c-0.6-0.5-0.7-1-0.4-1.8c0.3-0.7,2.3-3,4-5c0.4-0.5,0.9-1.1,1.3-1.6l0,0c0,0,0.3-0.4,0.8-1.1c-0.6-1.3-1.4-2.7-1.8-3.9
	c-0.6-2.1-0.8-3.4-0.8-3.4s-2,5.2-4.2,9.4c-1.6,3.2-2.7,5.2-3.2,6.1l0,0c0,0-0.1,0.1-0.2,0.3l-0.1,0.2l0,0c-0.6,0.8-1.8,2.4-3,2.4
	c-3.4,0-2.1-6.9-2.1-6.9s-1,2.5-2.1,4.7c-0.9,1.8-1.7,3.3-3.5,3.3c-0.5,0-1.3,0-2-0.7c-1.6-1.5-2.7-5.2-2.5-8.1
	c0.2-2.5,0.6-4.2,1.1-5.6c-1,0.6-2.1,1.1-3.1,1.7l-1.7,1l0.1,0.1c1.4,2.7,1.8,8.6-1.3,13.1c-3,4.5-8.7,7.3-14.2,5.8
	c-1.8-0.5-4.5-4.2-2.1-9.3c2-4.5,10.2-8.8,12.3-9.8l0.6-0.3c-4.3-3.7-15-8.8-16.5-16.6c-0.4-2.2,0.6-7.4,7-13.4
	c5.4-5.1,12.9-8.9,19.8-11.4c11.7-4.1,24-1.7,25.9,5.7c1.9,7.3-4.5,16-12.6,19.2c-7.2,2.8-13.2,2.4-15.7,1.6
	c-2.8-0.9-4.4-2.8-4.8-3.8c-0.2-0.4-0.4-1.1,0-1.3c0.3-0.1,0.4-0.1,1.1,0.7c0.7,0.7,3.4,2.7,8.5,2.1c13.4-1.5,21.5-11.9,18.9-17.5
	c-1.8-3.9-12.1-5.7-25,0.7c-15.7,7.9-16.6,14.3-16.7,16.8c-0.4,6.8,8.3,10.3,13.1,15.4l0.2,0.2c0.9-0.5,1.8-1,2.7-1.5
	c1.9-1,3.8-2.1,5.7-3.1c1.7-2.4,5-5.1,7.5-5.1c3.9,0,2.6,5.6,2.6,5.6s0.1-0.3,0.2-0.3c0.1,0,0.5-0.7,1.7-0.3c1.2,0.5,1,1.3,1,1.4
	c0,0.2-1.5,5.1-2.1,8.3c-0.3,1.5-0.1,2.6,0,2.6c0.1,0,0.4-0.4,0.6-0.8l0,0c0,0,0.2-0.3,0.5-0.9l0.1-0.1l0,0c0.5-0.9,0.9-1.9,1.4-2.8
	c1.1-2.4,5.2-11.6,5.5-12.6c0.3-1,0.5-2.1,0.7-2.5c0.2-0.4,1.6-0.8,3.3-0.8c1.7,0,1.9,0.7,1.9,0.9c0,0.1-0.8,2.2-1,3.6
	c-0.2,1.4,0,2.1,0.1,3.3c0.1,0.8,0.6,1.8,1.2,2.9c1.8-2.9,4.9-8.4,5.2-9.9c0.2-1.1,0.5-2.1,0.7-2.5c0.2-0.4,1.6-0.8,3.3-0.8
	c1.7,0,1.9,0.7,1.9,0.9c0,0.2-0.8,2.2-1,3.6c-0.2,1.4,0,2.1,0.1,3.3c0.1,1,0.9,2.4,1.7,4c2.1-1.1,4.7-1.8,7.6-1.8
	c1.2,0,2.6,0.1,3.4,0.3V-9c0-1.7-0.9-3.2-2.3-4l-38.4-22.2c-1.4-0.8-3.2-0.8-4.6,0L2128.3-13c-1.4,0.8-2.2,2.4-2.2,4v44.4
	c0,1.7,0.8,3.2,2.2,4l38.3,22.2c1.4,0.8,3.2,0.8,4.6,0l38.3-22.2c1.4-0.8,2.3-2.4,2.3-4V17.4C2211.4,17.3,2210.7,17.2,2210,17.1
	L2210,17.1z M2168.7,14.7c-0.8,0.9-2.2,3.3-2.9,5.3c-1.3,4-0.7,8,0.2,8.2c1.1,0.3,2.8-5,3.7-7.1c0.5-1.3,2.6-7,2.1-7.8
	C2171.5,12.8,2170,13.3,2168.7,14.7L2168.7,14.7z M2183.6,28.1c0,0-0.3,0.2-0.1,0.3c0.2,0.1,0.5,0,0.8-0.2c1-0.6,3.3-2.2,3.3-4.6
	c0-0.1,0-0.1,0-0.2c-0.5,0.6-0.9,1.2-1.4,1.8C2185.5,26.1,2183.6,28.1,2183.6,28.1z"/>
</svg>
