<?xml version="1.0" encoding="utf-8"?>
<!-- Generator: Adobe Illustrator 19.1.0, SVG Export Plug-In . SVG Version: 6.00 Build 0)  -->
<svg version="1.1" id="Layer_1" xmlns="http://www.w3.org/2000/svg" xmlns:xlink="http://www.w3.org/1999/xlink" x="0px" y="0px"
	 viewBox="2439.9 17.7 100 61.5" style="enable-background:new 2439.9 17.7 100 61.5;" xml:space="preserve">
<style type="text/css">
	.st0{fill:#EFCCA3;}
	.st1{fill:#CCAC8D;}
	.st2{fill:#FFFFFF;}
	.st3{fill:#56332B;}
	.st4{fill:#442823;}
	.st5{fill:#7F4A41;}
	.st6{fill:#331712;}
</style>
<path class="st0" d="M2522.9,37.1c-0.2-3.4,0.3-6.3-1.2-8.9c-3.7-6.3-12.9-9.9-31.2-9.9v0.5h-0.4h0.4v-0.5c-18.4,0-28,3.7-31.7,10
	c-1.5,2.6-1.3,5.5-1.5,8.9c-0.2,2.7-1.4,5.5-0.8,8.6c0.6,4,0.8,8,1.5,11.6c0.5,3,4.6,5.5,5,8.3c1.1,7.8,9.2,11.4,27.5,11.4v0.6h-0.5
	h0.5v-0.6c18.4,0,26.2-3.6,27.2-11.4c0.4-2.9,4.2-5.4,4.7-8.3c0.6-3.7,0.8-7.6,1.5-11.6C2524.3,42.7,2523,39.8,2522.9,37.1
	L2522.9,37.1z"/>
<path class="st1" d="M2490.2,39.8c3.3,0.1,5.6,2.1,7.7,4.1c2.5,2.2,6.8,3.7,8.6,5.7s4.1,3.8,4.9,6.8c0.8,3,1.1,6.8,1.1,7.8
	c0,1,0.5,0.8,2.1,0c3.6-1.8,7.6-6.5,7.6-6.5c-0.5,3-4.4,5.7-4.7,8.5c-0.9,7.8-8.5,11.5-27.2,11.5h-0.1h0.5"/>
<path class="st1" d="M2502.2,33.9c0.7,2.4,3.1,10.4-1.6,7.7c0,0,2,1.1,3.2,5.5c1.3,4.4,4.4,4.9,4.4,4.9s5.1,1,8.9-2.3
	c3.2-2.8,3.7-7.6,2.4-11.4c-1.4-3.7-3.8-4.8-7.4-5.6C2508.6,31.9,2501.4,31.2,2502.2,33.9z"/>
<circle cx="2511.3" cy="42.6" r="6.7"/>
<circle class="st2" cx="2509.6" cy="39.6" r="1.8"/>
<path class="st0" d="M2501.1,42.3c0,0,6,4.1,9.3,8.2s3.2,4.8,3.2,4.8l-2.4,1.1c0,0-3.4-6.3-7.5-8.7c-4.2-2.4-4.7-4.4-4.7-4.4
	L2501.1,42.3L2501.1,42.3z"/>
<path class="st1" d="M2490.4,39.8c-3.3,0.1-5.7,2.1-8,4.1c-2.5,2.2-7,3.7-8.7,5.7s-4.1,3.8-5,6.8c-0.8,3-1.1,6.8-1.1,7.8
	c0,1,0.2,1.1-2.1,0c-3.6-1.7-7.6-6.5-7.6-6.5c0.5,3,4.4,5.7,4.7,8.5c1.1,7.8,8.6,11.5,27.4,11.5h0.4"/>
<path class="st3" d="M2508.1,52.8c-3.7-4.5-9.6-8.7-17.7-8.7h-0.1c-8.2,0-14.1,4.2-17.7,8.7c-3.8,4.7-3.5,6.5-3.5,10.9
	c0,16.1,5.7,11.5,9.4,13.5c3.8,1.9,7.8,1.3,11.9,1.3h0.1c4.1,0,8,0.5,11.9-1.4c3.7-1.9,9.4,2.8,9.4-13.2
	C2511.7,59.4,2511.9,57.4,2508.1,52.8L2508.1,52.8z"/>
<path class="st4" d="M2490,48c0,0-0.5,7.4-1.6,8.9l2-0.5L2490,48z"/>
<path class="st4" d="M2490.5,48c0,0,0.5,7.4,1.6,8.9l-2-0.5L2490.5,48z"/>
<path class="st3" d="M2484.1,46.3c-0.8-1.8,2-4.6,6.3-4.7c4.4,0,7.1,2.8,6.3,4.7c-0.8,1.8-3.5,2.4-6.3,2.4
	C2487.7,48.6,2484.9,48.1,2484.1,46.3L2484.1,46.3z"/>
<path d="M2490.5,48c0-0.3,2.6-0.4,4-1.3c0,0-2.8,0.9-3.4,0.5c-0.6-0.3-0.8-1.2-0.8-1.2s-0.2,0.9-0.7,1.2c-0.5,0.3-3.7-0.5-3.7-0.5
	s4.3,1.1,4.3,1.3c0,0.2-0.1,1-0.1,1.5c0,1.9,0,6.7,0.3,7c0.5,0.7,0.3-5.1,0.3-7C2490.5,48.9,2490.5,48.3,2490.5,48z"/>
<path class="st5" d="M2490.6,58.3c1.3,0,3.6,0.9,5.7,2.4c-2-2.2-4.4-3.7-5.7-3.7c-1.4,0-4.3,1.7-6.3,4.1
	C2486.4,59.3,2489.2,58.3,2490.6,58.3z"/>
<path class="st4" d="M2490.1,71.8c-2.9,0-5.7-0.9-8.3-1.6c-0.5-0.2-1.1,0.2-1.6,0.1c-4.8-1.5-8.7-4.1-11.1-7.4v0.8
	c0,16.1,5.7,11.5,9.4,13.5c3.8,1.9,7.8,1.3,11.9,1.3h0.1c4.1,0,8,0.5,11.9-1.4c3.7-1.9,9.4,2.8,9.4-13.3c0-0.6,0-1.2,0.1-1.8
	c-2.2,3.6-6.3,6.4-11.3,8.1c-0.5,0.2-1.5-0.2-2-0.2C2495.7,70.8,2493.2,71.8,2490.1,71.8L2490.1,71.8z"/>
<path class="st4" d="M2482.8,63.2c0,0-1.9,5.7-0.6,8.3l-1.8-0.8C2480.4,70.7,2481.7,64.9,2482.8,63.2z M2498,63.2
	c0,0,1.9,5.7,0.6,8.3l1.8-0.8C2500.3,70.7,2498.9,64.9,2498,63.2L2498,63.2z"/>
<path class="st1" d="M2477.9,33.9c-0.7,2.4-3.1,10.4,1.6,7.7c0,0-2,1.1-3.2,5.5s-4.4,4.9-4.4,4.9s-5.1,1-8.9-2.3
	c-3.2-2.8-3.7-7.6-2.4-11.4c1.4-3.7,3.8-4.8,7.4-5.6C2471.6,31.9,2478.7,31.2,2477.9,33.9L2477.9,33.9z"/>
<path d="M2490.4,56.9c2.1,0,8.5,4.4,8.6,9.9v-0.3c0-5.7-5.2-10.2-8.6-10.2s-8.6,4.6-8.6,10.2v0.3
	C2481.9,61.3,2488.3,56.9,2490.4,56.9z"/>
<ellipse transform="matrix(-0.2498 -0.9683 0.9683 -0.2498 3070.4128 2469.262)" class="st6" cx="2491.8" cy="45.2" rx="1.1" ry="0.6"/>
<ellipse transform="matrix(0.2963 -0.9551 0.9551 0.2963 1707.9779 2408.5286)" class="st6" cx="2488.5" cy="45.2" rx="1.1" ry="0.6"/>
<circle cx="2469.2" cy="42.6" r="6.7"/>
<circle class="st2" cx="2471" cy="39.6" r="1.8"/>
<path class="st5" d="M2492.4,42.7c0-0.1-1.8,0.8-2.2,0.8c-0.5-0.1-2.2-0.9-2.2-0.8H2492.4z"/>
<path class="st0" d="M2479,42.3c0,0-6,4.1-9.3,8.2s-3.2,4.8-3.2,4.8l2.4,1.1c0,0,3.4-6.3,7.5-8.7s4.7-4.4,4.7-4.4L2479,42.3z"/>
<path class="st1" d="M2465.8,30.1c0,0-2.1,5.7-6.7,8C2459.1,38.1,2466.3,37.2,2465.8,30.1z M2514,30.1c0,0,2.1,5.7,6.7,8
	C2520.7,38.1,2513.5,37.2,2514,30.1z M2500.9,40.6c0,0-4.5-4.7-10.6-4.9h0.1h0.1c-6.1,0.2-10.6,4.9-10.6,4.9
	c5.3-3.7,9.8-3.6,10.6-3.6C2490.5,37,2495.7,36.9,2500.9,40.6L2500.9,40.6z M2495.7,30.7c0,0-2.3-3.2-5.4-3.3h0.2
	c-2.3,0.1-5.3,3.3-5.3,3.3c2.6-2.5,5.3-2.4,5.3-2.4S2493,28.1,2495.7,30.7z M2469.2,54.1c0,0-3.6,1.8-6.2,0.7h-0.1
	c-2.3-1.3-3.4-5.2-3.4-5.2S2461.8,56.5,2469.2,54.1z M2511.1,54.1c0,0,3.6,1.8,6.2,0.7c3.1-1.3,3.5-5.2,3.5-5.2
	S2518.5,56.5,2511.1,54.1z"/>
<path class="st1" d="M2473.3,29.7c2-0.4,5.3-0.5,7.9,0.4c3.3,1.1,0.6,5.4,1.3,5.6s1.6-2.9,7.7-2.6c6.2,0.3,6.9,3.1,7.7,2.6
	c0.8-0.5-0.8-7.6,8.4-6c0,0-9.7-2.6-9.3,4.4c0,0-5.6-4.3-13.4-0.5C2483.8,33.6,2485.8,27.1,2473.3,29.7z M2507.2,29.7
	c0.2,0,0.2,0.1,0.3,0.1S2507.4,29.7,2507.2,29.7z M2470.6,20.3c0,0-8.3,10.4-9.5,14.4c-1.2,4.1-2.1,20.7-3.2,23l-3.8-16.4l7-17.1
	L2470.6,20.3L2470.6,20.3z M2509.5,20.3c0,0,8.3,10.4,9.5,14.4c1.2,4.1,2.1,20.7,3.2,23l3.8-16.4l-7-17.1L2509.5,20.3L2509.5,20.3z"
	/>
<path class="st3" d="M2509.1,20.3c0,0,8.9,7.4,11.5,16s1.5,19,3.5,20.3c2.8,1.8,6-9.1,7.1-10.2c1.7-1.8,7.3-6.5,7.6-7.3
	c0.4-0.8-11.3-13.6-16.4-16.1C2516.2,19.9,2508.6,19.6,2509.1,20.3L2509.1,20.3z"/>
<path class="st4" d="M2516.7,24.8c0,0,10.5,13.4,10.3,30.1l4.2-8.6C2531.1,46.3,2527.5,35.4,2516.7,24.8L2516.7,24.8z"/>
<path class="st3" d="M2470.6,20.3c0,0-8.9,7.4-11.5,16s-1.5,19-3.5,20.3c-2.8,1.8-6-9.1-7.1-10.2c-1.7-1.8-7.3-6.5-7.6-7.3
	c-0.4-0.8,11.3-13.6,16.4-16.1C2463.5,19.9,2471.2,19.6,2470.6,20.3L2470.6,20.3z"/>
<path class="st4" d="M2463.1,24.8c0,0-10.5,13.4-10.3,30.1l-4.1-8.6C2448.6,46.3,2452.3,35.4,2463.1,24.8z"/>
<path class="st1" d="M2457.4,55.2c0,0,0.8,4.1,2,5.4c1.2,1.3,0.4-1,0.4-1s-1.3-0.7-1.1-6S2457.4,55.2,2457.4,55.2L2457.4,55.2z
	 M2522.7,55.2c0,0-0.8,4.1-2,5.4s-0.4-1-0.4-1s1.3-0.7,1.1-6C2521.1,48.4,2522.7,55.2,2522.7,55.2L2522.7,55.2z"/>
<g>
	<circle class="st4" cx="2482.4" cy="52.1" r="0.6"/>
	<circle class="st4" cx="2478.9" cy="55.8" r="0.6"/>
	<circle class="st4" cx="2477.8" cy="52.1" r="0.6"/>
</g>
<g>
	<circle class="st4" cx="2497.3" cy="52.1" r="0.6"/>
	<circle class="st4" cx="2500.9" cy="55.8" r="0.6"/>
	<circle class="st4" cx="2502" cy="52.1" r="0.6"/>
</g>
</svg>
