<?xml version="1.0" encoding="utf-8"?>
<!-- Generator: Adobe Illustrator 19.1.0, SVG Export Plug-In . SVG Version: 6.00 Build 0)  -->
<svg version="1.1" id="Слой_1" xmlns="http://www.w3.org/2000/svg" xmlns:xlink="http://www.w3.org/1999/xlink" x="0px" y="0px"
	 viewBox="2434.3 -21.4 100 75" style="enable-background:new 2434.3 -21.4 100 75;" xml:space="preserve">
<style type="text/css">
	.st0{fill:#CF649A;}
</style>
<path class="st0" d="M2519.7,21.5c-3.4,0-6.4,0.8-8.9,2.1c-0.9-1.8-1.8-3.4-2-4.6c-0.2-1.4-0.4-2.2-0.2-3.9c0.2-1.6,1.2-4,1.2-4.2
	c0-0.2-0.2-1-2.2-1c-2,0-3.7,0.4-3.9,0.9s-0.6,1.7-0.8,2.9c-0.3,1.8-3.9,8.2-6,11.5c-0.7-1.3-1.2-2.5-1.4-3.4
	c-0.2-1.4-0.4-2.2-0.2-3.9c0.2-1.6,1.2-4,1.2-4.2c0-0.2-0.2-1-2.2-1c-2,0-3.7,0.4-3.9,0.9s-0.4,1.7-0.8,2.9
	c-0.4,1.2-5.2,11.8-6.4,14.6c-0.6,1.4-1.2,2.5-1.6,3.3c-0.4,0.8,0,0.1-0.1,0.1c-0.3,0.7-0.5,1-0.5,1v0c-0.3,0.5-0.6,0.9-0.7,0.9
	c-0.1,0-0.3-1.3,0-3c0.7-3.7,2.4-9.5,2.4-9.7c0-0.1,0.3-1.1-1.1-1.6c-1.4-0.5-1.9,0.3-2,0.3c-0.1,0-0.2,0.3-0.2,0.3s1.6-6.5-3-6.5
	c-2.8,0-6.7,3.1-8.7,5.9c-1.2,0.7-3.8,2.1-6.6,3.6c-1.1,0.6-2.1,1.2-3.2,1.7l-0.2-0.2c-5.5-5.8-15.6-10-15.2-17.8
	c0.2-2.9,1.1-10.4,19.4-19.5c15-7.5,27-5.4,29.1-0.9c3,6.5-6.4,18.6-22,20.3c-5.9,0.7-9.1-1.6-9.8-2.5c-0.8-0.9-0.9-0.9-1.2-0.8
	c-0.5,0.3-0.2,1.1,0,1.6c0.5,1.2,2.4,3.3,5.6,4.4c2.9,0.9,9.8,1.5,18.2-1.8c9.4-3.7,16.8-13.8,14.6-22.3
	c-2.2-8.6-16.5-11.5-30.1-6.7c-8.1,2.9-16.8,7.4-23.1,13.2c-7.5,7-8.7,13.1-8.2,15.6c1.7,9,14.2,14.9,19.1,19.2
	c-0.2,0.1-0.5,0.3-0.7,0.4c-2.5,1.2-12,6.2-14.3,11.4c-2.7,5.9,0.4,10.2,2.5,10.8c6.4,1.8,12.9-1.4,16.5-6.7
	c3.5-5.3,3.1-12.1,1.5-15.2l-0.1-0.1l2-1.1c1.3-0.7,2.5-1.4,3.6-2c-0.6,1.7-1.1,3.6-1.3,6.5c-0.3,3.4,1.1,7.7,2.9,9.5
	c0.8,0.7,1.8,0.8,2.4,0.8c2.1,0,3.1-1.7,4.1-3.8c1.3-2.5,2.5-5.5,2.5-5.5s-1.4,8,2.5,8c1.4,0,2.9-1.9,3.5-2.8v0c0,0,0-0.1,0.1-0.2
	c0.1-0.1,0.2-0.2,0.2-0.4v0c0.6-1,1.9-3.3,3.8-7c2.5-4.9,4.8-10.9,4.8-10.9s0.2,1.5,0.9,3.9c0.4,1.5,1.3,3,2,4.6
	c-0.6,0.8-0.9,1.3-0.9,1.3l0,0c-0.5,0.6-1,1.3-1.5,1.9c-2,2.3-4.3,5-4.6,5.8c-0.4,0.9-0.3,1.6,0.4,2.1c0.5,0.4,1.4,0.5,2.4,0.4
	c1.8-0.1,3-0.6,3.6-0.8c1-0.3,2-0.9,3.1-1.6c1.9-1.4,3.1-3.4,3-6.1c-0.1-1.5-0.5-2.9-1.1-4.3c0.2-0.2,0.3-0.5,0.5-0.8
	c3-4.4,5.4-9.3,5.4-9.3s0.2,1.5,0.9,3.9c0.4,1.2,1.1,2.6,1.7,3.9c-2.8,2.3-4.6,5-5.2,6.8c-1.1,3.3-0.2,4.7,1.4,5.1
	c0.7,0.2,1.8-0.2,2.6-0.5c1-0.3,2.2-0.9,3.3-1.7c1.9-1.4,3.8-3.4,3.7-6c-0.1-1.2-0.4-2.4-0.8-3.6c2.4-1,5.5-1.6,9.5-1.1
	c8.5,1,10.2,6.3,9.9,8.5c-0.3,2.2-2.1,3.4-2.7,3.8c-0.6,0.4-0.8,0.5-0.7,0.8c0.1,0.4,0.3,0.4,0.9,0.3c0.7-0.1,4.5-1.8,4.6-5.9
	C2533.5,27.2,2528.6,21.5,2519.7,21.5L2519.7,21.5z M2454,43.7c-2.8,3.1-6.8,4.2-8.5,3.3c-1.8-1.1-1.1-5.6,2.4-8.9
	c2.1-2,4.8-3.8,6.6-5c0.4-0.2,1-0.6,1.7-1.1c0.1-0.1,0.2-0.1,0.2-0.1c0.1-0.1,0.3-0.2,0.4-0.3C2458.2,36.3,2457,40.4,2454,43.7
	L2454,43.7z M2474.6,29.7c-1,2.4-3,8.5-4.3,8.2c-1.1-0.3-1.7-4.9-0.2-9.5c0.8-2.3,2.4-5.1,3.3-6.1c1.6-1.7,3.2-2.3,3.7-1.6
	C2477.6,21.5,2475.2,28.2,2474.6,29.7z M2491.6,37.8c-0.4,0.2-0.8,0.4-1,0.2c-0.1-0.1,0.2-0.4,0.2-0.4s2.1-2.3,3-3.3
	c0.5-0.6,1.1-1.3,1.7-2.1v0.2C2495.4,35.2,2492.7,37,2491.6,37.8L2491.6,37.8z M2504.6,34.8c-0.3-0.2-0.3-0.9,0.8-3.2
	c0.4-0.9,1.3-2.4,2.9-3.8c0.2,0.6,0.3,1.1,0.3,1.6C2508.6,33,2506.1,34.3,2504.6,34.8z"/>
</svg>
