<?xml version="1.0" encoding="utf-8"?>
<!-- Generator: Adobe Illustrator 19.1.0, SVG Export Plug-In . SVG Version: 6.00 Build 0)  -->
<svg version="1.1" id="Слой_1" xmlns="http://www.w3.org/2000/svg" xmlns:xlink="http://www.w3.org/1999/xlink" x="0px" y="0px"
	 viewBox="0 231 99 99" style="enable-background:new 0 231 99 99;" xml:space="preserve">
<style type="text/css">
	.st0{fill:#FFB13B;}
	.st1{opacity:0.85;enable-background:new    ;}
	.st2{fill:#FFFFFF;}
</style>
<g>
	<path d="M92.8,270.6c-2.6-2.6-5.9-4-9.5-4.1c2.4-2.5,3.8-5.9,3.8-9.6c0-7.7-6.3-14-14-14c-3.7,0-7.1,1.5-9.6,3.8
		c-0.1-3.5-1.4-6.9-4.1-9.5c-5.4-5.4-14.3-5.4-19.8,0c-2.6,2.6-4,6.1-4.1,9.5c-2.5-2.4-5.9-3.8-9.6-3.8c-7.7,0-14,6.3-14,14
		c0,3.7,1.5,7.1,3.8,9.6c-3.5,0.1-6.9,1.4-9.5,4.1c-5.4,5.4-5.4,14.3,0,19.8c2.6,2.6,6.1,4,9.5,4.1c-2.4,2.5-3.8,5.9-3.8,9.6
		c0,7.7,6.3,14,14,14c3.7,0,7.1-1.5,9.6-3.8c0.1,3.6,1.5,7,4.1,9.5c2.7,2.7,6.3,4.1,9.9,4.1c3.6,0,7.2-1.4,9.9-4.1
		c2.6-2.6,4-6.1,4.1-9.5c2.5,2.4,5.9,3.8,9.6,3.8c7.7,0,14-6.3,14-14c0-3.7-1.5-7.1-3.9-9.6c3.5-0.1,6.9-1.4,9.5-4.1
		C98.3,284.9,98.3,276.1,92.8,270.6z"/>
	<path id="base" d="M2.1,280.4h94.8v33.4c0,7.8-6,13.8-13.9,13.8H16c-7.9,0-13.9-6-13.9-13.8C2.1,313.8,2.1,280.4,2.1,280.4z"/>
	<path class="st0" d="M88.2,275.3c-2.9-2.9-7.6-2.9-10.6,0H62.4l10.8-10.8c4.1,0,7.5-3.4,7.5-7.5c0-4.1-3.3-7.5-7.5-7.5
		c-4.1,0-7.5,3.4-7.5,7.5l-10.8,10.8v-15.3c2.9-2.9,2.9-7.7,0-10.6c-2.9-2.9-7.6-2.9-10.6,0c-2.9,2.9-2.9,7.7,0,10.6v15.3L33.5,257
		c0-4.1-3.3-7.5-7.5-7.5c-4.1,0-7.5,3.4-7.5,7.5c0,4.1,3.3,7.5,7.5,7.5l10.8,10.8H21.6c-2.9-2.9-7.6-2.9-10.6,0
		c-2.9,2.9-2.9,7.7,0,10.6s7.6,2.9,10.6,0h15.3l-10.8,10.8c-4.1,0-7.5,3.4-7.5,7.5s3.3,7.5,7.5,7.5c4.1,0,7.5-3.4,7.5-7.5l10.8-10.8
		v15.3c-2.9,2.9-2.9,7.7,0,10.6s7.6,2.9,10.6,0c2.9-2.9,2.9-7.7,0-10.6v-15.3l10.8,10.8c0,4.1,3.3,7.5,7.5,7.5
		c4.1,0,7.5-3.4,7.5-7.5s-3.3-7.5-7.5-7.5l-10.8-10.8h15.1c2.9,2.9,7.6,2.9,10.6,0C91.1,282.9,91.1,278.2,88.2,275.3z"/>
	<path id="base_1_" class="st1" d="M2.4,280.6h94.3V314c0,7.8-6,13.9-13.8,13.9H16.3c-7.8,0-13.8-6-13.8-13.9v-33.4H2.4z"/>
	<g>
		<g id="SVG" transform="scale(2) translate(20,79)">
			<path id="S" class="st2" d="M-11.7,73c-1.1-1.1-1.8-2.6-1.8-4.3c0-3.4,2.7-6.1,6.1-6.1s6.1,2.7,6.1,6.1h-3.6
				c0-1.4-1.1-2.5-2.5-2.5s-2.5,1.1-2.5,2.5c0,0.7,0.3,1.3,0.7,1.8l0,0c0.5,0.5,0.8,0.6,1.8,0.7l0,0c1.7,0.2,3.2,0.7,4.3,1.8l0,0
				c1.1,1.1,1.8,2.6,1.8,4.3c0,3.4-2.7,6.1-6.1,6.1s-6.1-2.7-6.1-6.1h3.6c0,1.4,1.1,2.5,2.5,2.5s2.5-1.1,2.5-2.5
				c0-0.7-0.3-1.3-0.7-1.8l0,0c-0.5-0.5-1.1-0.6-1.8-0.7l0,0C-9,74.6-10.6,74.1-11.7,73L-11.7,73L-11.7,73z"/>
			<path id="V" class="st2" d="M11,62.6L6.6,83.5H3l-4.3-20.9h3.6l2.5,12.2l2.5-12.2C7.3,62.6,11,62.6,11,62.6z"/>
			<path id="G" class="st2" d="M17.1,71.2h6.1v6.1l0,0c0,3.4-2.7,6.1-6.1,6.1S11,80.7,11,77.3l0,0v-8.7l0,0c0-3.4,2.7-6.1,6.1-6.1
				s6.1,2.7,6.1,6.1h-3.6c0-1.4-1.1-2.5-2.5-2.5s-2.5,1.1-2.5,2.5v8.7l0,0c0,1.4,1.1,2.5,2.5,2.5s2.5-1.1,2.5-2.5l0,0v-2.5h-2.5
				V71.2L17.1,71.2z"/>
		</g>
	</g>
</g>
</svg>
