<?xml version="1.0" encoding="utf-8"?>
<!-- Generator: Adobe Illustrator 19.1.0, SVG Export Plug-In . SVG Version: 6.00 Build 0)  -->
<svg version="1.1" id="Слой_1" xmlns="http://www.w3.org/2000/svg" xmlns:xlink="http://www.w3.org/1999/xlink" x="0px" y="0px"
	 viewBox="1094.4 -35.2 45 100" style="enable-background:new 1094.4 -35.2 45 100;" xml:space="preserve">
<style type="text/css">
	.st0{fill:#D34A47;}
</style>
<g>
	<path class="st0" d="M1128.8,60.3l0.9-15.5l2.6-4.4c0,0-5.8,2.4-15.6,2.4c-9.8,0-15.6-2.3-15.6-2.3l2.9,4.8l1,15.1
		c0,1.6,5.3,2.9,11.9,2.9C1123.4,63.3,1128.8,62,1128.8,60.3"/>
	<path class="st0" d="M1125.8-12.1l2-7.7l10.8-11.4c0,0,0.5-0.5-0.9-1.7c-1.5-1.3-2-0.7-2-0.7l-11.5,12.1l-2.3,9.2
		c-1.7-0.1-3.4-0.1-5.1-0.1c-12.1,0-21.8,1.4-21.8,3.1c0,1.7,9.8,3.1,21.8,3.1c12.1,0,21.8-1.4,21.8-3.1
		C1138.8-10.5,1133.4-11.6,1125.8-12.1 M1124.7-7.7c0,0-0.4,0.1-1.7,0.1c-1.2,0-2.1,0-2.5-0.3c-0.1-0.1-0.1-0.3-0.1-0.4
		c0-0.2,0.2-0.4,0.4-0.4l0.2,0.3c-0.1,0-0.1,0.1-0.1,0.1c0,0.2,1.3,0.3,2.2,0.3c1,0,2.2-0.1,2.2-0.3c0,0-0.1-0.1-0.2-0.1l0.2-0.3
		c0.3,0.1,0.5,0.2,0.5,0.5C1125.6-7.9,1125.1-7.8,1124.7-7.7"/>
	<path class="st0" d="M1128.3,22.5c-0.3-2.5,5.4-6,3.9-6.2c-3.1,0.2-4.7,3.7-6.2,7.3c-0.6,1.3-2.5,7-3.8,6.3
		c-1.3-0.7,1.7-5.4,2.5-8.2c-1,0.7-4.5,3.4-5.4,0.9c-1.5,1.2-4.6,1.9-4.2-1.3c-0.8,1.4-2.5,3.3-4.6,2.5c-2.7-1,1.6-9.8,2.7-9.3
		c1.1,0.4-0.2,2.4-0.6,3.2c-0.7,1.7-1.6,3.8-1,4.3c1,0.7,3.7-2.8,3.7-2.9c0.5-0.7,1.9-5,3.1-4.5s-2.9,6.2-1.4,7.4
		c0.3,0.2,1.5-0.1,2.3-1c0.5-0.5,0.3-1.7,2-5.6c1.6-3.9,3.1-8.7,4.2-8.4c1.1,0.4,0.2,2.9-0.2,3.8c-1.9,4.3-5.1,11.5-3.6,11
		c1.5-0.5,2.3-0.6,3.8-2.3c1.5-1.8,1.4-4.7,2.4-4.6c1,0.1,0.8,1,0.6,1.7c1-1.1,4.7-3.5,5.6-1.2c1.1,2.8-5.3,6.8-3.7,6.6
		c1.5-0.2,4-1.8,5.1-3.2l2.9-26.3c0,0-2.9,2.4-21.7,2.4c-18.8,0-21.4-2.4-21.4-2.4l2.5,24c1.3-3.8,4.5-11.4,9.4-11.1
		c2.3,0.1,5.3,4.5,2.7,4.6c-1.1,0.1-1.2-2.2-2.5-2.5c-0.9-0.2-2.2,0.5-3.1,1.3c-1.7,1.6-5.3,8.1-4.8,11.3c0.6,4.1,5.7-1.4,6.5-3.1
		c0.6-1.2,1-4.6,2.3-4.2c1.3,0.4-0.1,3.9-1.1,7c-1.1,3.5-1.6,7.2-3,6.8c-1.3-0.4,0.8-5,0.8-5.8c-1.3,1.2-3.6,4.1-6.6,2.7l1.5,14.9
		c0,0,4.1,3.3,16.5,3.3c12.4,0,16.7-3.2,16.7-3.2l1.9-17.3C1133.6,22.8,1128.6,25.5,1128.3,22.5"/>
</g>
</svg>
