<?xml version="1.0" encoding="utf-8"?>
<!-- Generator: Adobe Illustrator 19.1.0, SVG Export Plug-In . SVG Version: 6.00 Build 0)  -->
<svg version="1.1" id="Слой_1" xmlns="http://www.w3.org/2000/svg" xmlns:xlink="http://www.w3.org/1999/xlink" x="0px" y="0px"
	 viewBox="2435 2.8 100 24.5" style="enable-background:new 2435 2.8 100 24.5;" xml:space="preserve">
<style type="text/css">
	.st0{fill:#ffffff;}
	.st1{fill:#0868AC;}
</style>
<g>
	<path class="st0" d="M2496.3,6.5h-2.9c-0.2,0-0.3,0.1-0.4,0.3l-1,4.7l-1,4.7c0,0.2-0.2,0.3-0.4,0.3h-2c-2,0-1.8-1.4-1.4-3.3l0-0.1
		l0-0.2l0,0l0.1-0.5l0.1-0.5c0-0.2,0.1-0.4,0.1-0.5l0.5-2.3l0.5-2.3c0-0.2-0.1-0.3-0.2-0.3h-3c-0.2,0-0.3,0.1-0.4,0.3l-0.6,3l-0.6,3
		c0,0,0,0,0,0l-0.1,0.3c-0.7,3.3-0.5,6.5,3.4,6.6c0.1,0,0.1,0,0.1,0h6.2c0.2,0,0.3-0.1,0.4-0.3l1.3-6.3l1.3-6.3
		C2496.6,6.7,2496.5,6.5,2496.3,6.5L2496.3,6.5z"/>
	<path class="st0" d="M2465.6,6.5h-3.2c-0.2,0-0.3,0.1-0.4,0.3l-0.3,1.3l-0.3,1.3c0,0.2,0.1,0.3,0.2,0.3h3.2c0.2,0,0.3-0.1,0.4-0.3
		l0.3-1.3l0.3-1.3v0C2465.8,6.6,2465.7,6.5,2465.6,6.5L2465.6,6.5z"/>
	<path class="st0" d="M2464.6,10.6h-3.2c-0.2,0-0.3,0.1-0.4,0.3l-0.4,2l-0.4,2c0,0.2-0.1,0.4-0.1,0.6l-0.4,2l-0.4,2
		c0,0.2-0.1,0.4-0.2,0.6c0,0-0.6,1.8-1.6,1.7c0,0-0.1,0-0.1,0c-0.5,0-0.9,0-0.9,0h0c-0.2,0-0.3,0.1-0.4,0.3l-0.3,1.4l-0.3,1.4
		c0,0.2,0.1,0.3,0.2,0.3c0.6,0,1.8,0,2.6,0c2.5,0,3.8-1.4,4.7-5.4l1-4.6l0.9-4.3C2464.9,10.8,2464.8,10.6,2464.6,10.6L2464.6,10.6z"
		/>
	<path class="st0" d="M2523.2,9.6l-0.1-0.5l-0.1-0.6l-0.1-0.3c-0.3-1-1-1.6-2.7-1.6l-2.6,0l-2.4,0h-2.7c-0.2,0-0.3,0.1-0.4,0.3h0
		l-0.1,0.6l-0.1,0.7l0,0.2l-1.2,5.6l-1.1,5.3c0,0.2,0,0.3,0,0.4c0,0.1,0.3,0.1,0.5,0.1h2.4c0.2,0,0.4,0,0.4-0.1
		c0.1,0,0.2-0.3,0.2-0.5l0.4-2.1l0.4-2.1l0,0l0.1-0.3l0.5-2.4l0.5-2.1c0-0.2,0.2-0.3,0.4-0.3l7.5,0
		C2523.2,9.8,2523.3,9.7,2523.2,9.6L2523.2,9.6z"/>
	<path class="st0" d="M2532.9,4.6c-0.2,0-0.4,0-0.6,0h-2.4c-0.2,0-0.4,0.1-0.5,0.2l-5.3,7.8c-0.1,0.1-0.2,0.1-0.2,0l-0.4-1.7
		c0-0.2-0.2-0.3-0.4-0.3h-3.4c-0.2,0-0.3,0.1-0.2,0.3l1.5,5.4c0,0.2,0,0.4,0,0.6l-0.7,2.6c0,0.2,0.1,0.3,0.2,0.3h3.4
		c0.2,0,0.3-0.1,0.4-0.3l0.7-2.6c0-0.2,0.2-0.4,0.2-0.5l8.7-11.5c0.1-0.1,0-0.2-0.1-0.2L2532.9,4.6L2532.9,4.6z"/>
	<path class="st0" d="M2505.7,11.4L2505.7,11.4c0,0.2-0.2,0.3-0.3,0.3h-4.4c-0.2,0-0.2-0.1-0.2-0.2c0,0,0,0,0,0c0,0,0,0,0,0
		c0,0,0,0,0,0l0-0.1c0.4-1.1,1.3-1.8,2.9-1.8C2505.4,9.5,2505.8,10.4,2505.7,11.4L2505.7,11.4z M2504.4,6.4c-5.6,0-6.9,3.4-7.7,6.8
		c-0.7,3.5-0.7,6.7,5.1,6.7h0.2c0,0,0,0,0.1,0h0.4c0,0,0,0,0.1,0l0.2,0h0c0.2,0,0.5,0,0.7,0h0c1.5,0,3.1,0,3.7,0
		c0.2,0,0.3-0.1,0.3-0.3l0.2-1.1l0-0.2l0.3-1.4c0-0.2-0.1-0.3-0.2-0.3h-5.2c-2.1,0-2.7-0.5-2.5-2.2h8.3l0,0c0,0,0,0,0,0
		c0.1,0,0.3-0.1,0.3-0.2c0,0,0,0,0-0.1l0,0C2510,9.5,2509.7,6.4,2504.4,6.4L2504.4,6.4L2504.4,6.4z"/>
	<path class="st0" d="M2478,11.4l-0.1,0.3l0,0l-0.6,2.2l-0.6,2.2c0,0.2-0.2,0.3-0.4,0.3h-3.3c-2.5,0-3.1-2-2.5-4.9
		c0.6-3,1.8-4.8,4.3-5C2478.1,6.2,2478.8,8.6,2478,11.4L2478,11.4z M2480.3,16.2c0,0,1.6-3.8,1.9-6c0.5-2.9-1-7.2-6.7-7.2
		c-5.7,0-8.1,4.1-9,8.5c-0.9,4.5,0.3,8.4,5.9,8.3l4.4,0l4.1,0c0.2,0,0.3-0.1,0.4-0.3l0.7-2.8c0-0.2-0.1-0.3-0.2-0.3l-0.7,0l-0.7,0
		C2480.3,16.5,2480.2,16.4,2480.3,16.2C2480.2,16.2,2480.3,16.2,2480.3,16.2L2480.3,16.2L2480.3,16.2z"/>
</g>
<g>
	<path class="st1" d="M2437.1,8.7c-1.6,2.2-1.4,5.2-0.2,7.5c0,0.1,0.1,0.1,0.1,0.2c0,0,0,0.1,0.1,0.1c0,0,0,0,0,0.1
		c0,0,0,0.1,0.1,0.1c0,0.1,0.1,0.1,0.1,0.2c0,0,0,0.1,0.1,0.1c0,0.1,0.1,0.1,0.1,0.2c0,0,0,0.1,0.1,0.1c0.1,0.1,0.1,0.2,0.2,0.3l0,0
		c0,0,0,0,0,0c0.1,0.1,0.1,0.2,0.2,0.2c0,0,0,0.1,0.1,0.1c0.1,0.1,0.1,0.2,0.2,0.3c0.1,0.1,0.2,0.2,0.2,0.3c0,0,0,0,0,0
		c0.2,0.2,0.3,0.3,0.5,0.5c0,0,0,0,0.1,0.1c0.1,0.1,0.2,0.2,0.3,0.2c0,0,0,0,0,0c0.1,0.1,0.2,0.1,0.2,0.2c0,0,0.1,0,0.1,0.1
		c0.1,0,0.1,0.1,0.2,0.1l0.1,0.1c0.1,0.1,0.1,0.1,0.2,0.2c0,0,0.1,0,0.1,0.1c0,0,0,0,0,0c0.1,0,0.1,0.1,0.2,0.1c0,0,0.1,0,0.1,0.1
		c0.1,0.1,0.2,0.1,0.3,0.2c0,0,0.1,0,0.1,0.1c0.1,0,0.2,0.1,0.2,0.1c0,0,0.1,0,0.1,0.1c0.1,0,0.1,0.1,0.2,0.1c0,0,0,0,0,0
		c0,0,0,0,0.1,0c0.1,0.1,0.2,0.1,0.3,0.2c0.1,0,0.2,0.1,0.3,0.1c0,0,0.1,0,0.1,0c0.1,0,0.2,0.1,0.3,0.1c0.1,0,0.2,0.1,0.3,0.1
		c0,0,0.1,0,0.1,0c0.1,0,0.2,0.1,0.3,0.1c7.5,1.4,9.7-4.5,9.7-4.5c-1.8,2.4-5.1,3-8.2,2.3c-0.1,0-0.2-0.1-0.3-0.1
		c-0.1,0-0.3-0.1-0.4-0.1l0,0c-0.1,0-0.2-0.1-0.3-0.1c0,0-0.1,0-0.1,0c-0.1,0-0.2-0.1-0.3-0.1c0,0,0,0-0.1,0
		c-0.1-0.1-0.2-0.1-0.3-0.2c-0.1,0-0.1-0.1-0.2-0.1c0,0-0.1,0-0.1-0.1c-0.1,0-0.2-0.1-0.2-0.1c0,0-0.1,0-0.1,0
		c-0.1-0.1-0.2-0.1-0.3-0.2c0,0-0.1,0-0.1-0.1c-0.1,0-0.2-0.1-0.2-0.2c0,0,0,0-0.1-0.1c-0.1-0.1-0.1-0.1-0.2-0.2c0,0-0.1,0-0.1-0.1
		c-0.1-0.1-0.2-0.1-0.3-0.2c-0.1-0.1-0.2-0.1-0.2-0.2l0,0c-0.1-0.1-0.2-0.2-0.3-0.2c0,0,0,0-0.1-0.1c-0.1-0.1-0.1-0.1-0.2-0.2
		c0,0,0,0-0.1-0.1c-0.1-0.1-0.2-0.2-0.2-0.2l0,0c-0.1-0.1-0.2-0.2-0.2-0.3c0,0,0,0-0.1-0.1c-0.1-0.1-0.1-0.1-0.2-0.2
		c0,0,0,0-0.1-0.1c-0.1-0.1-0.1-0.2-0.2-0.3c-1.7-2.3-2.3-5.6-1-8.2"/>
	<path class="st1" d="M2442,6.8c-1.1,1.6-1.1,3.8-0.2,5.5c0.1,0.3,0.3,0.6,0.5,0.8c0.2,0.2,0.4,0.5,0.6,0.7c0.1,0.1,0.2,0.2,0.3,0.3
		c0,0,0,0,0.1,0.1c0.1,0.1,0.2,0.2,0.3,0.2c0,0,0,0,0,0c0,0,0,0,0,0c0.1,0.1,0.2,0.2,0.3,0.2c0,0,0,0,0.1,0.1
		c0.1,0.1,0.2,0.2,0.3,0.2c0,0,0,0,0,0c0,0,0.1,0.1,0.1,0.1c0,0,0,0,0.1,0c0.1,0,0.2,0.1,0.2,0.1c0,0,0,0,0,0c0.1,0,0.1,0.1,0.2,0.1
		c0,0,0,0,0.1,0c0,0,0.1,0.1,0.1,0.1c0,0,0,0,0,0c0.1,0,0.2,0.1,0.3,0.1c0,0,0,0,0.1,0c0.1,0,0.2,0.1,0.2,0.1c0,0,0.1,0,0.1,0
		c0.1,0,0.2,0.1,0.2,0.1c0,0,0.1,0,0.1,0c0.1,0,0.2,0.1,0.3,0.1c5.8,1,7.2-3.5,7.2-3.5c-1.2,1.7-3.6,2.6-6.1,1.9
		c-0.1,0-0.3-0.1-0.4-0.1c-0.1,0-0.2-0.1-0.3-0.1c-0.1,0-0.2-0.1-0.2-0.1c0,0,0,0-0.1,0c-0.1,0-0.2-0.1-0.3-0.1
		c-0.1,0-0.1-0.1-0.2-0.1l-0.1,0c-0.1,0-0.1-0.1-0.2-0.1c0,0,0,0,0,0c-0.1,0-0.2-0.1-0.2-0.1c0,0,0,0-0.1,0c-0.1,0-0.1-0.1-0.2-0.1
		c-0.1-0.1-0.2-0.2-0.3-0.2c0,0,0,0-0.1-0.1c-1.1-0.9-2-2-2.4-3.4c-0.4-1.4-0.3-3,0.4-4.2"/>
	<path class="st1" d="M2446,5.4c-0.7,1-0.7,2.2-0.3,3.3c0.5,1.1,1.5,2,2.6,2.5c0,0,0.1,0,0.1,0.1c0,0,0,0,0.1,0c0.1,0,0.1,0,0.2,0.1
		c3.2,0.6,4.1-1.7,4.3-2c-0.8,1.1-2,1.4-3.6,1c-0.1,0-0.3-0.1-0.4-0.1c-0.2-0.1-0.3-0.1-0.5-0.2c-0.3-0.1-0.5-0.3-0.8-0.5
		c-1.4-1.1-2.3-3.1-1.4-4.8"/>
</g>
<g>
	<polygon class="st1" points="2482.3,24.5 2481.3,26.6 2480.3,26.6 2480.4,24.7 2479.6,26.6 2478.6,26.6 2478.6,24.5 2478.7,24
		2479.4,24 2479.3,26 2480.1,24 2481.1,24 2481,26.1 2481.8,24 2482.4,24 	"/>
	<path class="st1" d="M2483.9,25.1c0.1-0.4,0.1-0.5-0.1-0.5h-0.3l-0.2,1l-0.3,1h-0.6l0.5-2.3l0.1-0.3h0.5l0.1,0.2
		c0,0,0.3-0.2,0.6-0.2c0.7,0,0.6,0.5,0.5,1.2L2483.9,25.1z"/>
	<path class="st1" d="M2485.8,23.6c-0.3,0-0.4-0.1-0.4-0.4c0.1-0.3,0.3-0.4,0.5-0.4c0.3,0,0.4,0.1,0.4,0.4
		C2486.3,23.5,2486.1,23.6,2485.8,23.6L2485.8,23.6z"/>
	<polygon class="st1" points="2485.5,26.6 2484.9,26.6 2485.1,25.6 2485.3,24.6 2484.9,24.5 2485,24 2486.1,24 2485.5,26.6 	"/>
	<path class="st1" d="M2488.1,24.5l-0.7,0.1l-0.2,1c-0.1,0.3-0.1,0.4,0.2,0.4h0.5l-0.1,0.5c0,0-0.5,0.1-0.6,0.1
		c-0.8,0-0.8-0.4-0.6-1l0.2-1l-0.4-0.1l0.1-0.6h0.4l0.2-0.7h0.6l-0.1,0.7h0.7L2488.1,24.5L2488.1,24.5z"/>
	<path class="st1" d="M2489.6,24.5c-0.3,0-0.5,0.2-0.6,0.5l1-0.1C2490.1,24.7,2490,24.5,2489.6,24.5z M2488.9,25.5
		c0,0.3,0.1,0.4,0.5,0.4h1l-0.1,0.5c0,0-0.6,0.2-1.1,0.2c-1.2,0-1.2-0.6-1-1.3c0.1-0.7,0.4-1.4,1.5-1.4c1.1,0,1.1,0.7,0.9,1.6
		H2488.9L2488.9,25.5z"/>
	<path class="st1" d="M2493,26.6h-0.6l0.1-1l0.4-2l-0.4-0.1l0.1-0.6h1.1L2493,26.6L2493,26.6z"/>
	<path class="st1" d="M2495.2,24.5c-0.3,0-0.5,0.2-0.6,0.5l1-0.1C2495.6,24.7,2495.5,24.5,2495.2,24.5z M2494.5,25.5
		c0,0.3,0.1,0.4,0.5,0.4h1l-0.1,0.5c0,0-0.6,0.2-1.1,0.2c-1.2,0-1.2-0.6-1-1.3c0.1-0.7,0.4-1.4,1.5-1.4c1.1,0,1.1,0.7,0.9,1.6
		H2494.5L2494.5,25.5z"/>
	<path class="st1" d="M2498.9,24.6c0,0-0.8,0-1,0c-0.4,0-0.5,0.1-0.5,0.3l0,0.1l1.4,0.1c0,0,0,0.4-0.1,0.7c-0.1,0.4-0.5,0.8-1.3,0.8
		c-0.4,0-1-0.1-1-0.1l0.1-0.5h1c0.4,0,0.5-0.1,0.5-0.2l0-0.2l-1.4-0.1c0,0-0.1-0.3,0-0.7c0.1-0.5,0.5-0.9,1.3-0.9c0.4,0,1,0.1,1,0.1
		L2498.9,24.6L2498.9,24.6z"/>
	<path class="st1" d="M2501.5,24.6c0,0-0.8,0-1,0c-0.4,0-0.5,0.1-0.5,0.3l0,0.1l1.4,0.1c0,0,0,0.4-0.1,0.7c-0.1,0.4-0.5,0.8-1.3,0.8
		c-0.4,0-1-0.1-1-0.1l0.1-0.5h1c0.4,0,0.5-0.1,0.5-0.2l0-0.2l-1.4-0.1c0,0-0.1-0.3,0-0.7c0.1-0.5,0.5-0.9,1.3-0.9c0.4,0,1,0.1,1,0.1
		L2501.5,24.6L2501.5,24.6z"/>
	<path class="st1" d="M2502.3,27h-0.5l0-0.4c-0.2,0-0.3-0.1-0.2-0.4c0.1-0.3,0.3-0.4,0.5-0.4c0.3,0,0.4,0.1,0.4,0.4L2502.3,27z"/>
	<path class="st1" d="M2505.7,24.6c-0.4,0-0.5,0.2-0.6,0.7c-0.1,0.4-0.1,0.7,0.3,0.7h0.5l0.3-1.3H2505.7z M2506.6,26.2l-0.1,0.3
		l-0.5,0l-0.1-0.2c0,0-0.5,0.2-0.8,0.2c-0.8,0-0.9-0.7-0.7-1.4c0.1-0.7,0.5-1.4,1.3-1.4c0.3,0,0.7,0.1,0.7,0.1l0.3-1.1h0.6
		L2506.6,26.2L2506.6,26.2z"/>
	<path class="st1" d="M2508.7,24.6c-0.5,0-0.7,0.3-0.8,0.7c-0.1,0.4,0,0.7,0.5,0.7c0.5,0,0.7-0.3,0.8-0.7
		C2509.3,24.9,2509.3,24.6,2508.7,24.6L2508.7,24.6z M2508.3,26.6c-1.1,0-1.1-0.7-1-1.4c0.1-0.7,0.5-1.3,1.6-1.3
		c1.1,0,1.2,0.7,1,1.3C2509.7,26,2509.4,26.6,2508.3,26.6L2508.3,26.6z"/>
	<path class="st1" d="M2514.3,26.6l0.1-1l0.1-0.3c0.1-0.4,0.1-0.7-0.3-0.7h-0.3c0,0.2,0,0.4-0.1,0.7l-0.3,1.3h-0.6l0.1-1l0.1-0.3
		c0.1-0.4,0.1-0.7-0.3-0.7h-0.3l-0.4,2h-0.7l0.6-2.6h0.5l0.1,0.2c0,0,0.4-0.2,0.7-0.2c0.2,0,0.4,0.1,0.5,0.2
		c0.1-0.1,0.5-0.2,0.8-0.2c0.8,0,0.8,0.7,0.6,1.4l-0.3,1.3L2514.3,26.6L2514.3,26.6L2514.3,26.6z"/>
	<path class="st1" d="M2517.1,24.6c-0.5,0-0.7,0.3-0.8,0.7c-0.1,0.4,0,0.7,0.5,0.7c0.5,0,0.7-0.3,0.8-0.7
		C2517.6,24.9,2517.6,24.6,2517.1,24.6L2517.1,24.6z M2516.6,26.6c-1.1,0-1.1-0.7-1-1.4c0.1-0.7,0.5-1.3,1.6-1.3
		c1.1,0,1.2,0.7,1,1.3C2518.1,26,2517.7,26.6,2516.6,26.6z"/>
	<path class="st1" d="M2520,25.1c0.1-0.4,0.1-0.5-0.1-0.5h-0.3l-0.2,1l-0.3,1h-0.6l0.5-2.3l0.1-0.3h0.5l0.1,0.2c0,0,0.3-0.2,0.6-0.2
		c0.7,0,0.6,0.5,0.5,1.2L2520,25.1L2520,25.1z"/>
	<path class="st1" d="M2522.3,24.5c-0.3,0-0.5,0.2-0.6,0.5l1-0.1C2522.7,24.7,2522.7,24.5,2522.3,24.5L2522.3,24.5z M2521.6,25.5
		c0,0.3,0.1,0.4,0.5,0.4h1l-0.1,0.5c0,0-0.6,0.2-1.1,0.2c-1.2,0-1.2-0.6-1-1.3c0.1-0.7,0.4-1.4,1.5-1.4c1.1,0,1.1,0.7,0.9,1.6
		H2521.6L2521.6,25.5z"/>
	<path class="st1" d="M2523.9,26.6c-0.3,0-0.4-0.1-0.4-0.4c0.1-0.3,0.3-0.4,0.5-0.4c0.3,0,0.4,0.1,0.4,0.4
		C2524.4,26.5,2524.1,26.6,2523.9,26.6z"/>
</g>
</svg>
