<?xml version="1.0" encoding="utf-8"?>
<!-- Generator: Adobe Illustrator 19.1.0, SVG Export Plug-In . SVG Version: 6.00 Build 0)  -->
<svg version="1.1" id="Слой_1" xmlns="http://www.w3.org/2000/svg" xmlns:xlink="http://www.w3.org/1999/xlink" x="0px" y="0px"
	 viewBox="0 0 100 97.5" style="enable-background:new 0 0 100 97.5;" xml:space="preserve">
<path style="fill: #ffffff" id="gh" d="M92.7,25.4C88.3,17.9,82.3,12,74.9,7.6C67.4,3.2,59.2,1,50.3,1S33,3.1,25.5,7.5S12.1,17.9,7.6,25.4S1,41.1,1,50
	c0,10.7,3.1,20.3,9.3,28.8s14.3,14.5,24.1,17.7c1,0.2,2,0.1,2.6-0.3s0.8-1,0.8-1.9c0-0.1,0-1.3,0-3.4c0-2.2,0-4.1,0-5.7l-1.5,0.3
	c-0.9,0.2-2.1,0.2-3.5,0.2c-1.4,0-2.9-0.2-4.4-0.3c-1.5-0.3-3-0.9-4.3-1.9c-1.3-1-2.3-2.3-2.8-4l-0.7-1.6c-0.3-1-1-2.2-2-3.4
	c-0.9-1.2-1.7-2-2.8-2.4l-0.3-0.3c-0.3-0.2-0.6-0.5-0.8-0.8c-0.3-0.3-0.3-0.6-0.6-0.9c-0.1-0.3,0-0.5,0.3-0.7c0.3-0.2,1-0.3,1.9-0.3
	l1.3,0.2c0.9,0.2,1.9,0.7,3.1,1.5c1.3,0.9,2.3,2,3.1,3.3c1,1.7,2.2,3.1,3.5,4c1.4,0.9,2.8,1.4,4.2,1.4c1.4,0,2.6-0.1,3.6-0.3
	c1-0.2,2-0.5,2.9-1c0.3-2.9,1.4-5,3.1-6.6c-2.4-0.3-4.7-0.6-6.5-1c-1.8-0.4-4-1.3-6.1-2.4c-2.1-1-3.8-2.6-5.1-4.3
	c-1.5-1.7-2.6-4-3.5-6.8s-1.3-6.1-1.3-9.6c0-5.1,1.7-9.6,5-13.2c-1.6-4-1.4-8.2,0.3-13.1c1.2-0.3,3.1-0.1,5.5,0.9
	c2.3,1,4.2,1.7,5.4,2.4c1,0.7,2,1.3,2.7,1.7c4-1,8-1.7,12.2-1.7s8.3,0.6,12.4,1.7l2.4-1.5c1.7-1,3.6-2,5.9-2.8c2.3-0.9,4-1,5.2-0.7
	c1.9,4.8,2.1,9.1,0.5,13.1c3.4,3.6,5,8,5,13.2c0,3.6-0.3,6.8-1.3,9.6c-0.9,2.8-2,5-3.4,6.8c-1.4,1.7-3.1,3.1-5.2,4.2
	c-2.1,1-4.1,2-6.1,2.4c-2,0.5-4.1,0.9-6.5,1c2.2,1.9,3.3,4.9,3.3,9.1v13.5c0,0.8,0.3,1.4,0.8,1.9c0.5,0.5,1.4,0.7,2.4,0.3
	c10-2.8,18-8.7,24.3-17.3c6.3-8.6,9.6-18.3,9.6-28.9C99.2,41.1,97,32.9,92.7,25.4z"/>
</svg>
