<?xml version="1.0" encoding="utf-8"?>
<!-- Generator: Adobe Illustrator 19.1.0, SVG Export Plug-In . SVG Version: 6.00 Build 0)  -->
<svg version="1.1" id="Слой_1" xmlns="http://www.w3.org/2000/svg" xmlns:xlink="http://www.w3.org/1999/xlink" x="0px" y="0px"
	 viewBox="0 0 100 99.8" style="enable-background:new 0 0 100 99.8;" xml:space="preserve">
<path style="fill: #ffffff" id="skype" d="M94.8,57c0.4-2.3,0.6-4.7,0.6-7.1C95.4,24.8,75.1,4.4,50,4.4c-2.5,0-4.8,0.2-7.1,0.6c-4.2-2.6-9.1-4-14.5-4
	C13.3,0.9,1,13.2,1,28.4c0,5.3,1.5,10.2,4,14.5c-0.4,2.2-0.5,4.7-0.5,7C4.6,75,24.9,95.3,50,95.3c2.5,0,4.8-0.2,7.1-0.6
	c4.2,2.6,9.1,4,14.5,4C86.8,98.9,99,86.6,99,71.4C99,66.2,97.5,61.3,94.8,57z M71.6,70.6c-2,2.8-4.7,4.9-8.5,6.5
	c-3.7,1.6-8.1,2.3-13.1,2.3c-6,0-11.1-1.1-14.9-3.2c-2.8-1.5-5.1-3.6-6.7-6.1c-1.8-2.6-2.6-5.1-2.6-7.5c0-1.3,0.6-2.7,1.6-3.7
	c1.1-1,2.4-1.6,4-1.6c1.3,0,2.5,0.4,3.4,1.2c1,0.9,1.7,2,2.5,3.6c0.9,1.8,1.6,3.3,2.5,4.5c0.9,1.2,2.1,2.2,3.7,2.9
	c1.6,0.9,3.7,1.1,6.4,1.1c3.6,0,6.6-0.9,8.8-2.3c2.3-1.6,3.3-3.6,3.3-5.8c0-1.8-0.6-3.3-1.8-4.4c-1.2-1.1-2.8-2-4.7-2.6
	c-2-0.6-4.7-1.3-7.8-2c-4.3-1.2-8.1-2.3-11-3.7c-2.9-1.3-5.4-2.9-7.1-5.3c-1.8-2.2-2.6-5-2.6-8.3c0-3.2,0.9-6,2.8-8.5
	s4.7-4.3,8.1-5.8c3.6-1.3,7.6-2,12.3-2c3.8,0,7,0.4,9.8,1.3c2.8,0.9,5.1,2,6.9,3.6c1.8,1.3,3.2,2.9,4,4.7S72,33,72,34.4
	c0,1.3-0.6,2.7-1.6,3.8c-1.1,1.1-2.5,1.7-4,1.7c-1.3,0-2.6-0.2-3.4-1c-0.9-0.7-1.6-1.8-2.5-3.3c-1.1-2.1-2.5-3.8-3.9-4.9
	c-1.7-1.2-4-1.8-7.6-1.8c-3.2,0-5.8,0.7-7.6,2c-2,1.3-2.9,2.8-2.9,4.5c0,1.1,0.2,2,1,2.8c0.7,0.9,1.5,1.5,2.7,2.1
	c1.1,0.6,2.3,1.1,3.6,1.3s3.2,0.9,5.9,1.5c3.4,0.7,6.6,1.6,9.4,2.4c2.8,0.9,5.1,2,7.2,3.3c2.1,1.3,3.6,2.9,4.7,5
	c1.1,2,1.7,4.5,1.7,7.3C74.5,64.7,73.5,67.8,71.6,70.6z"/>
</svg>
